<svg width="69" height="69" viewBox="0 0 69 69" fill="none" xmlns="http://www.w3.org/2000/svg">
<rect x="0.236328" y="0.116577" width="68.1166" height="68.1166" fill="#131313"/>
<path d="M3.28516 3.16821H65.2988V65.1811H3.28516V3.16821Z" fill="url(#paint0_radial_147_16005)"/>
<path d="M3.07257 3.02755H65.5128V65.3222H3.07257V3.02755ZM0.234375 68.2333H68.351V0.116699H0.234375V68.2333ZM44.8508 24.3941C44.8508 24.1612 44.9359 24.0447 45.1913 24.0447H49.6473C49.8744 24.0447 49.9879 24.1321 49.9879 24.3941V47.3617C49.9879 47.5944 49.9311 47.7109 49.6473 47.7109H45.2481C44.9643 47.7109 44.8791 47.5654 44.8791 47.3326V24.3941H44.8508ZM44.5386 17.7868C44.5386 15.9238 45.8157 14.8176 47.4335 14.8176C49.1648 14.8176 50.3285 16.011 50.3285 17.7868C50.3285 19.7079 49.108 20.756 47.3768 20.756C45.7306 20.7554 44.5386 19.7075 44.5386 17.7861V17.7868ZM31.7667 33.9718C30.972 30.7406 29.099 23.6962 28.3892 20.2903H28.3325C27.7365 23.6962 26.2322 29.4597 25.0402 33.9718H31.7667ZM23.8765 38.6877L21.6343 47.4198C21.5776 47.6526 21.4924 47.7107 21.2086 47.7107H17.0365C16.7527 47.7107 16.6959 47.6233 16.7527 47.2741L24.8131 18.3388C24.955 17.815 25.0402 17.3491 25.0969 15.9227C25.0969 15.7184 25.1821 15.6316 25.324 15.6316H31.2842C31.4829 15.6316 31.568 15.6897 31.6248 15.9227L40.6502 47.3324C40.707 47.5651 40.6502 47.7107 40.4232 47.7107H35.7118C35.4847 47.7107 35.3428 47.6526 35.286 47.4489L32.9587 38.6868H23.8765V38.6877Z" fill="#FF7F18"/>
<defs>
<radialGradient id="paint0_radial_147_16005" cx="0" cy="0" r="1" gradientUnits="userSpaceOnUse" gradientTransform="translate(23.7102 16.7977) scale(47.1299 47.1299)">
<stop stop-color="#423325" stop-opacity="0.98"/>
<stop offset="1" stop-color="#1C0A00"/>
</radialGradient>
</defs>
</svg>
