<svg width="62" height="62" viewBox="0 0 62 62" fill="none" xmlns="http://www.w3.org/2000/svg">
<path d="M15.6218 0.444336H3.15143C2.43382 0.444652 1.74569 0.729862 1.23827 1.23729C0.730838 1.74472 0.445629 2.43285 0.445312 3.15046V15.6184C0.445629 16.336 0.730838 17.0241 1.23827 17.5316C1.74569 18.039 2.43382 18.3242 3.15143 18.3245H15.6206C16.3382 18.3242 17.0263 18.039 17.5337 17.5316C18.0412 17.0241 18.3264 16.336 18.3267 15.6184V3.15165C18.3268 2.79628 18.257 2.44435 18.1212 2.11597C17.9853 1.78759 17.7861 1.48918 17.5349 1.23778C17.2838 0.986388 16.9855 0.786923 16.6573 0.650783C16.329 0.514643 15.9771 0.444493 15.6218 0.444336ZM37.2356 0.444336H24.7664C24.0488 0.444652 23.3607 0.729862 22.8533 1.23729C22.3459 1.74472 22.0606 2.43285 22.0603 3.15046V15.6184C22.0606 16.336 22.3459 17.0241 22.8533 17.5316C23.3607 18.039 24.0488 18.3242 24.7664 18.3245H37.2356C37.9532 18.3242 38.6413 18.039 39.1488 17.5316C39.6562 17.0241 39.9414 16.336 39.9417 15.6184V3.15165C39.9419 2.79618 39.872 2.44415 39.7361 2.11569C39.6001 1.78724 39.4008 1.48877 39.1495 1.23736C38.8982 0.985949 38.5999 0.786511 38.2715 0.650442C37.9431 0.514372 37.5911 0.444336 37.2356 0.444336ZM61.5567 3.15046C61.5564 2.43285 61.2712 1.74472 60.7638 1.23729C60.2563 0.729862 59.5682 0.444652 58.8506 0.444336H46.3803C45.6627 0.444652 44.9745 0.729862 44.4671 1.23729C43.9597 1.74472 43.6745 2.43285 43.6742 3.15046V15.6196C43.6742 16.3374 43.9592 17.0258 44.4667 17.5335C44.9741 18.0412 45.6625 18.3266 46.3803 18.3269H58.8494C59.567 18.3266 60.2552 18.0414 60.7626 17.534C61.27 17.0265 61.5552 16.3384 61.5555 15.6208L61.5567 3.15046ZM15.6218 22.0629H3.15143C2.43382 22.0633 1.74569 22.3485 1.23827 22.8559C0.730838 23.3633 0.445629 24.0514 0.445312 24.7691V37.2382C0.445629 37.9558 0.730838 38.6439 1.23827 39.1514C1.74569 39.6588 2.43382 39.944 3.15143 39.9443H15.6206C16.3382 39.944 17.0263 39.6588 17.5337 39.1514C18.0412 38.6439 18.3264 37.9558 18.3267 37.2382V24.7702C18.3268 24.4149 18.257 24.0629 18.1212 23.7346C17.9853 23.4062 17.7861 23.1078 17.5349 22.8564C17.2838 22.605 16.9855 22.4055 16.6573 22.2694C16.329 22.1332 15.9771 22.0631 15.6218 22.0629ZM37.2356 22.0629H24.7664C24.0488 22.0633 23.3607 22.3485 22.8533 22.8559C22.3459 23.3633 22.0606 24.0514 22.0603 24.7691V37.2382C22.0606 37.9558 22.3459 38.6439 22.8533 39.1514C23.3607 39.6588 24.0488 39.944 24.7664 39.9443H37.2356C37.9532 39.944 38.6413 39.6588 39.1488 39.1514C39.6562 38.6439 39.9414 37.9558 39.9417 37.2382V24.7702C39.9419 24.4148 39.872 24.0627 39.7361 23.7343C39.6001 23.4058 39.4008 23.1074 39.1495 22.856C38.8982 22.6045 38.5999 22.4051 38.2715 22.269C37.9431 22.133 37.5911 22.0629 37.2356 22.0629ZM58.8506 22.0629H46.3803C45.6627 22.0633 44.9745 22.3485 44.4671 22.8559C43.9597 23.3633 43.6745 24.0514 43.6742 24.7691V37.2382C43.6742 37.956 43.9592 38.6444 44.4667 39.1521C44.9741 39.6598 45.6625 39.9452 46.3803 39.9455H58.8494C59.567 39.9452 60.2552 39.66 60.7626 39.1526C61.27 38.6451 61.5552 37.957 61.5555 37.2394V24.7702C61.5557 24.4149 61.4858 24.0629 61.35 23.7346C61.2141 23.4062 61.015 23.1078 60.7638 22.8564C60.5126 22.605 60.2144 22.4055 59.8861 22.2694C59.5578 22.1332 59.206 22.0631 58.8506 22.0629ZM15.6218 43.6756H3.15143C2.43382 43.6759 1.74569 43.9611 1.23827 44.4685C0.730838 44.9759 0.445629 45.6641 0.445312 46.3817V58.8496C0.445629 59.5672 0.730838 60.2554 1.23827 60.7628C1.74569 61.2702 2.43382 61.5554 3.15143 61.5557H15.6206C16.3382 61.5554 17.0263 61.2702 17.5337 60.7628C18.0412 60.2554 18.3264 59.5672 18.3267 58.8496V46.3817C18.3268 46.0264 18.257 45.6745 18.1211 45.3462C17.9853 45.0179 17.786 44.7195 17.5349 44.4682C17.2837 44.2169 16.9854 44.0176 16.6572 43.8816C16.3289 43.7456 15.9771 43.6756 15.6218 43.6756ZM37.2356 43.6756H24.7664C24.0488 43.6759 23.3607 43.9611 22.8533 44.4685C22.3459 44.9759 22.0606 45.6641 22.0603 46.3817V58.8496C22.0606 59.5672 22.3459 60.2554 22.8533 60.7628C23.3607 61.2702 24.0488 61.5554 24.7664 61.5557H37.2356C37.9532 61.5554 38.6413 61.2702 39.1488 60.7628C39.6562 60.2554 39.9414 59.5672 39.9417 58.8496V46.3817C39.9417 45.664 39.6566 44.9757 39.1491 44.4682C38.6416 43.9607 37.9533 43.6756 37.2356 43.6756ZM58.8506 43.6756H46.3803C45.6627 43.6759 44.9745 43.9611 44.4671 44.4685C43.9597 44.9759 43.6745 45.6641 43.6742 46.3817V58.8496C43.6742 59.5675 43.9592 60.2559 44.4667 60.7636C44.9741 61.2713 45.6625 61.5566 46.3803 61.5569H58.8494C59.567 61.5566 60.2552 61.2714 60.7626 60.764C61.27 60.2566 61.5552 59.5684 61.5555 58.8508V46.3817C61.5557 46.0264 61.4858 45.6745 61.35 45.3462C61.2141 45.0179 61.0149 44.7195 60.7637 44.4682C60.5125 44.2169 60.2143 44.0176 59.886 43.8816C59.5578 43.7456 59.2059 43.6756 58.8506 43.6756Z" fill="white"/>
</svg>
