<svg width="29" height="39" viewBox="0 0 29 39" fill="none" xmlns="http://www.w3.org/2000/svg">
<path fill-rule="evenodd" clip-rule="evenodd" d="M14.3532 8.73499C14.9876 8.73499 15.5961 8.48295 16.0447 8.03433C16.4933 7.58571 16.7454 6.97724 16.7454 6.34279C16.7454 5.70834 16.4933 5.09988 16.0447 4.65126C15.5961 4.20263 14.9876 3.9506 14.3532 3.9506C13.7187 3.9506 13.1103 4.20263 12.6616 4.65126C12.213 5.09988 11.961 5.70834 11.961 6.34279C11.961 6.97724 12.213 7.58571 12.6616 8.03433C13.1103 8.48295 13.7187 8.73499 14.3532 8.73499ZM14.3532 0.362305C15.7319 0.362023 17.0683 0.838093 18.1363 1.70994C19.2043 2.58179 19.9383 3.79587 20.2141 5.1467H26.3141C26.9486 5.1467 27.5571 5.39873 28.0057 5.84735C28.4543 6.29598 28.7063 6.90444 28.7063 7.53889V36.2452C28.7063 36.8797 28.4543 37.4882 28.0057 37.9368C27.5571 38.3854 26.9486 38.6374 26.3141 38.6374H2.3922C1.75775 38.6374 1.14928 38.3854 0.700658 37.9368C0.252034 37.4882 0 36.8797 0 36.2452V7.53889C0 6.90444 0.252034 6.29598 0.700658 5.84735C1.14928 5.39873 1.75775 5.1467 2.3922 5.1467H8.49229C8.76803 3.79587 9.50202 2.58179 10.57 1.70994C11.638 0.838093 12.9745 0.362023 14.3532 0.362305ZM11.961 12.3233H20.3337V8.73499H25.1181V35.0491H3.58829V8.73499H8.37268V12.3233H11.961ZM20.4054 20.1697C20.5817 20.0054 20.7231 19.8074 20.8211 19.5873C20.9192 19.3672 20.9719 19.1296 20.9762 18.8887C20.9804 18.6478 20.9361 18.4085 20.8459 18.1851C20.7556 17.9617 20.6213 17.7588 20.451 17.5884C20.2806 17.418 20.0777 17.2837 19.8543 17.1935C19.6309 17.1033 19.3916 17.0589 19.1507 17.0632C18.9098 17.0674 18.6722 17.1202 18.4521 17.2182C18.232 17.3163 18.034 17.4577 17.8697 17.634L13.1571 22.3466L12.0327 21.2222C11.6926 20.9053 11.2428 20.7328 10.778 20.741C10.3132 20.7492 9.8697 20.9375 9.54098 21.2662C9.21226 21.5949 9.02397 22.0384 9.01577 22.5032C9.00757 22.968 9.1801 23.4179 9.49702 23.758L11.8892 26.1502C12.2256 26.4862 12.6816 26.6749 13.1571 26.6749C13.6325 26.6749 14.0885 26.4862 14.4249 26.1502L20.4054 20.1697Z" fill="black"/>
</svg>
