<svg width="377" height="406" viewBox="0 0 377 406" fill="none" xmlns="http://www.w3.org/2000/svg">
<rect x="376.5" y="405.5" width="30" height="30" transform="rotate(-180 376.5 405.5)" fill="#3F3F3F" stroke="#3F3F3F"/>
<rect x="376.5" y="318.5" width="30" height="30" transform="rotate(-180 376.5 318.5)" fill="#3F3F3F" stroke="#3F3F3F"/>
<rect x="376.5" y="376.5" width="30" height="30" transform="rotate(-180 376.5 376.5)" fill="#3F3F3F" stroke="#3F3F3F"/>
<rect x="376.5" y="204.5" width="30" height="30" transform="rotate(-180 376.5 204.5)" fill="#3F3F3F" stroke="#3F3F3F"/>
<rect x="376.5" y="289.5" width="30" height="30" transform="rotate(-180 376.5 289.5)" fill="#3F3F3F" stroke="#3F3F3F"/>
<rect x="145.5" y="405.5" width="30" height="30" transform="rotate(-180 145.5 405.5)" fill="#3F3F3F" stroke="#3F3F3F"/>
<rect x="145.5" y="318.5" width="30" height="30" transform="rotate(-180 145.5 318.5)" fill="#3F3F3F" stroke="#3F3F3F"/>
<rect x="145.5" y="146.5" width="30" height="30" transform="rotate(-180 145.5 146.5)" fill="#3F3F3F" stroke="#3F3F3F"/>
<rect x="145.5" y="376.5" width="30" height="30" transform="rotate(-180 145.5 376.5)" fill="#3F3F3F" stroke="#3F3F3F"/>
<rect x="145.5" y="204.5" width="30" height="30" transform="rotate(-180 145.5 204.5)" fill="#3F3F3F" stroke="#3F3F3F"/>
<rect x="145.5" y="289.5" width="30" height="30" transform="rotate(-180 145.5 289.5)" fill="#3F3F3F" stroke="#3F3F3F"/>
<rect x="145.5" y="347.5" width="30" height="30" transform="rotate(-180 145.5 347.5)" fill="#3F3F3F" stroke="#3F3F3F"/>
<rect x="145.5" y="260.5" width="30" height="30" transform="rotate(-180 145.5 260.5)" fill="#3F3F3F" stroke="#3F3F3F"/>
<rect x="261.5" y="405.5" width="30" height="30" transform="rotate(-180 261.5 405.5)" fill="#3F3F3F" stroke="#3F3F3F"/>
<rect x="261.5" y="318.5" width="30" height="30" transform="rotate(-180 261.5 318.5)" fill="#3F3F3F" stroke="#3F3F3F"/>
<rect x="261.5" y="376.5" width="30" height="30" transform="rotate(-180 261.5 376.5)" fill="#3F3F3F" stroke="#3F3F3F"/>
<rect x="261.5" y="204.5" width="30" height="30" transform="rotate(-180 261.5 204.5)" fill="#3F3F3F" stroke="#3F3F3F"/>
<rect x="261.5" y="117.5" width="30" height="30" transform="rotate(-180 261.5 117.5)" fill="#3F3F3F" stroke="#3F3F3F"/>
<rect x="261.5" y="347.5" width="30" height="30" transform="rotate(-180 261.5 347.5)" fill="#3F3F3F" stroke="#3F3F3F"/>
<rect x="261.5" y="260.5" width="30" height="30" transform="rotate(-180 261.5 260.5)" fill="#3F3F3F" stroke="#3F3F3F"/>
<rect x="318.5" y="405.5" width="30" height="30" transform="rotate(-180 318.5 405.5)" fill="#3F3F3F" stroke="#3F3F3F"/>
<rect x="318.5" y="233.5" width="30" height="30" transform="rotate(-180 318.5 233.5)" fill="#3F3F3F" stroke="#3F3F3F"/>
<rect x="318.5" y="318.5" width="30" height="30" transform="rotate(-180 318.5 318.5)" fill="#3F3F3F" stroke="#3F3F3F"/>
<rect x="318.5" y="376.5" width="30" height="30" transform="rotate(-180 318.5 376.5)" fill="#3F3F3F" stroke="#3F3F3F"/>
<rect x="318.5" y="289.5" width="30" height="30" transform="rotate(-180 318.5 289.5)" fill="#3F3F3F" stroke="#3F3F3F"/>
<rect x="318.5" y="347.5" width="30" height="30" transform="rotate(-180 318.5 347.5)" fill="#3F3F3F" stroke="#3F3F3F"/>
<rect x="88.5" y="175.5" width="30" height="30" transform="rotate(-180 88.5 175.5)" stroke="#3F3F3F"/>
<rect x="88.5" y="117.5" width="30" height="30" transform="rotate(-180 88.5 117.5)" stroke="#3F3F3F"/>
<rect x="88.5" y="88.5" width="30" height="30" transform="rotate(-180 88.5 88.5)" stroke="#3F3F3F"/>
<rect x="88.5" y="405.5" width="30" height="30" transform="rotate(-180 88.5 405.5)" fill="#3F3F3F" stroke="#3F3F3F"/>
<rect x="88.5" y="233.5" width="30" height="30" transform="rotate(-180 88.5 233.5)" fill="#3F3F3F" stroke="#3F3F3F"/>
<rect x="88.5" y="318.5" width="30" height="30" transform="rotate(-180 88.5 318.5)" fill="#3F3F3F" stroke="#3F3F3F"/>
<rect x="88.5" y="146.5" width="30" height="30" transform="rotate(-180 88.5 146.5)" fill="#3F3F3F" stroke="#3F3F3F"/>
<rect x="88.5" y="88.5" width="30" height="30" transform="rotate(-180 88.5 88.5)" fill="#3F3F3F" stroke="#3F3F3F"/>
<rect x="88.5" y="347.5" width="30" height="30" transform="rotate(-180 88.5 347.5)" fill="#3F3F3F" stroke="#3F3F3F"/>
<rect x="88.5" y="175.5" width="30" height="30" transform="rotate(-180 88.5 175.5)" fill="#3F3F3F" stroke="#3F3F3F"/>
<rect x="88.5" y="260.5" width="30" height="30" transform="rotate(-180 88.5 260.5)" fill="#3F3F3F" stroke="#3F3F3F"/>
<rect x="59.5" y="204.5" width="30" height="30" transform="rotate(-180 59.5 204.5)" stroke="#3F3F3F"/>
<rect x="203.5" y="405.5" width="30" height="30" transform="rotate(-180 203.5 405.5)" fill="#3F3F3F" stroke="#3F3F3F"/>
<rect x="203.5" y="233.5" width="30" height="30" transform="rotate(-180 203.5 233.5)" fill="#3F3F3F" stroke="#3F3F3F"/>
<rect x="203.5" y="318.5" width="30" height="30" transform="rotate(-180 203.5 318.5)" fill="#3F3F3F" stroke="#3F3F3F"/>
<rect x="203.5" y="376.5" width="30" height="30" transform="rotate(-180 203.5 376.5)" fill="#3F3F3F" stroke="#3F3F3F"/>
<rect x="203.5" y="175.5" width="30" height="30" transform="rotate(-180 203.5 175.5)" fill="#3F3F3F" stroke="#3F3F3F"/>
<rect x="203.5" y="260.5" width="30" height="30" transform="rotate(-180 203.5 260.5)" fill="#3F3F3F" stroke="#3F3F3F"/>
<rect x="347.5" y="405.5" width="30" height="30" transform="rotate(-180 347.5 405.5)" fill="#3F3F3F" stroke="#3F3F3F"/>
<rect x="347.5" y="318.5" width="30" height="30" transform="rotate(-180 347.5 318.5)" fill="#3F3F3F" stroke="#3F3F3F"/>
<rect x="347.5" y="347.5" width="30" height="30" transform="rotate(-180 347.5 347.5)" fill="#3F3F3F" stroke="#3F3F3F"/>
<rect x="347.5" y="260.5" width="30" height="30" transform="rotate(-180 347.5 260.5)" fill="#3F3F3F" stroke="#3F3F3F"/>
<rect x="116.5" y="146.5" width="29" height="30" transform="rotate(-180 116.5 146.5)" stroke="#3F3F3F"/>
<rect x="116.5" y="117.5" width="29" height="30" transform="rotate(-180 116.5 117.5)" stroke="#3F3F3F"/>
<rect x="116.5" y="405.5" width="29" height="30" transform="rotate(-180 116.5 405.5)" fill="#3F3F3F" stroke="#3F3F3F"/>
<rect x="116.5" y="233.5" width="29" height="30" transform="rotate(-180 116.5 233.5)" fill="#3F3F3F" stroke="#3F3F3F"/>
<rect x="116.5" y="318.5" width="29" height="30" transform="rotate(-180 116.5 318.5)" fill="#3F3F3F" stroke="#3F3F3F"/>
<rect x="116.5" y="289.5" width="29" height="30" transform="rotate(-180 116.5 289.5)" fill="#3F3F3F" stroke="#3F3F3F"/>
<rect x="116.5" y="146.5" width="29" height="30" transform="rotate(-180 116.5 146.5)" fill="#3F3F3F" stroke="#3F3F3F"/>
<rect x="116.5" y="376.5" width="29" height="30" transform="rotate(-180 116.5 376.5)" fill="#3F3F3F" stroke="#3F3F3F"/>
<rect x="116.5" y="204.5" width="29" height="30" transform="rotate(-180 116.5 204.5)" fill="#3F3F3F" stroke="#3F3F3F"/>
<rect x="116.5" y="117.5" width="29" height="30" transform="rotate(-180 116.5 117.5)" fill="#3F3F3F" stroke="#3F3F3F"/>
<rect x="116.5" y="175.5" width="29" height="30" transform="rotate(-180 116.5 175.5)" fill="#3F3F3F" stroke="#3F3F3F"/>
<rect x="116.5" y="260.5" width="29" height="30" transform="rotate(-180 116.5 260.5)" fill="#3F3F3F" stroke="#3F3F3F"/>
<rect x="232.5" y="405.5" width="30" height="30" transform="rotate(-180 232.5 405.5)" fill="#3F3F3F" stroke="#3F3F3F"/>
<rect x="232.5" y="233.5" width="30" height="30" transform="rotate(-180 232.5 233.5)" fill="#3F3F3F" stroke="#3F3F3F"/>
<rect x="232.5" y="318.5" width="30" height="30" transform="rotate(-180 232.5 318.5)" fill="#3F3F3F" stroke="#3F3F3F"/>
<rect x="232.5" y="146.5" width="30" height="30" transform="rotate(-180 232.5 146.5)" fill="#3F3F3F" stroke="#3F3F3F"/>
<rect x="232.5" y="376.5" width="30" height="30" transform="rotate(-180 232.5 376.5)" fill="#3F3F3F" stroke="#3F3F3F"/>
<rect x="232.5" y="289.5" width="30" height="30" transform="rotate(-180 232.5 289.5)" fill="#3F3F3F" stroke="#3F3F3F"/>
<rect x="232.5" y="347.5" width="30" height="30" transform="rotate(-180 232.5 347.5)" fill="#3F3F3F" stroke="#3F3F3F"/>
<rect x="289.5" y="405.5" width="29" height="30" transform="rotate(-180 289.5 405.5)" fill="#3F3F3F" stroke="#3F3F3F"/>
<rect x="289.5" y="376.5" width="29" height="30" transform="rotate(-180 289.5 376.5)" fill="#3F3F3F" stroke="#3F3F3F"/>
<rect x="289.5" y="289.5" width="29" height="30" transform="rotate(-180 289.5 289.5)" fill="#3F3F3F" stroke="#3F3F3F"/>
<rect x="289.5" y="347.5" width="29" height="30" transform="rotate(-180 289.5 347.5)" fill="#3F3F3F" stroke="#3F3F3F"/>
<rect x="59.5" y="405.5" width="30" height="30" transform="rotate(-180 59.5 405.5)" fill="#3F3F3F" stroke="#3F3F3F"/>
<rect x="59.5" y="233.5" width="30" height="30" transform="rotate(-180 59.5 233.5)" fill="#3F3F3F" stroke="#3F3F3F"/>
<rect x="59.5" y="318.5" width="30" height="30" transform="rotate(-180 59.5 318.5)" fill="#3F3F3F" stroke="#3F3F3F"/>
<rect x="59.5" y="146.5" width="30" height="30" transform="rotate(-180 59.5 146.5)" fill="#3F3F3F" stroke="#3F3F3F"/>
<rect x="59.5" y="376.5" width="30" height="30" transform="rotate(-180 59.5 376.5)" fill="#3F3F3F" stroke="#3F3F3F"/>
<rect x="59.5" y="204.5" width="30" height="30" transform="rotate(-180 59.5 204.5)" fill="#3F3F3F" stroke="#3F3F3F"/>
<rect x="59.5" y="289.5" width="30" height="30" transform="rotate(-180 59.5 289.5)" fill="#3F3F3F" stroke="#3F3F3F"/>
<rect x="59.5" y="117.5" width="30" height="30" transform="rotate(-180 59.5 117.5)" fill="#3F3F3F" stroke="#3F3F3F"/>
<rect x="59.5" y="88.5" width="30" height="30" transform="rotate(-180 59.5 88.5)" fill="#3F3F3F" stroke="#3F3F3F"/>
<rect x="59.5" y="59.5" width="30" height="30" transform="rotate(-180 59.5 59.5)" fill="#3F3F3F" stroke="#3F3F3F"/>
<rect x="59.5" y="347.5" width="30" height="30" transform="rotate(-180 59.5 347.5)" fill="#3F3F3F" stroke="#3F3F3F"/>
<rect x="30.5" y="117.5" width="30" height="30" transform="rotate(-180 30.5 117.5)" stroke="#3F3F3F"/>
<rect x="30.5" y="405.5" width="30" height="30" transform="rotate(-180 30.5 405.5)" fill="#3F3F3F" stroke="#3F3F3F"/>
<rect x="30.5" y="318.5" width="30" height="30" transform="rotate(-180 30.5 318.5)" fill="#3F3F3F" stroke="#3F3F3F"/>
<rect x="30.5" y="376.5" width="30" height="30" transform="rotate(-180 30.5 376.5)" fill="#3F3F3F" stroke="#3F3F3F"/>
<rect x="30.5" y="204.5" width="30" height="30" transform="rotate(-180 30.5 204.5)" fill="#3F3F3F" stroke="#3F3F3F"/>
<rect x="30.5" y="117.5" width="30" height="30" transform="rotate(-180 30.5 117.5)" fill="#3F3F3F" stroke="#3F3F3F"/>
<rect x="30.5" y="30.5" width="30" height="30" transform="rotate(-180 30.5 30.5)" fill="#3F3F3F" stroke="#3F3F3F"/>
<rect x="30.5" y="347.5" width="30" height="30" transform="rotate(-180 30.5 347.5)" fill="#3F3F3F" stroke="#3F3F3F"/>
<rect x="30.5" y="260.5" width="30" height="30" transform="rotate(-180 30.5 260.5)" fill="#3F3F3F" stroke="#3F3F3F"/>
<rect x="174.5" y="405.5" width="30" height="30" transform="rotate(-180 174.5 405.5)" fill="#3F3F3F" stroke="#3F3F3F"/>
<rect x="174.5" y="233.5" width="30" height="30" transform="rotate(-180 174.5 233.5)" fill="#3F3F3F" stroke="#3F3F3F"/>
<rect x="174.5" y="318.5" width="30" height="30" transform="rotate(-180 174.5 318.5)" fill="#3F3F3F" stroke="#3F3F3F"/>
<rect x="174.5" y="376.5" width="30" height="30" transform="rotate(-180 174.5 376.5)" fill="#3F3F3F" stroke="#3F3F3F"/>
<rect x="174.5" y="204.5" width="30" height="30" transform="rotate(-180 174.5 204.5)" fill="#3F3F3F" stroke="#3F3F3F"/>
<rect x="174.5" y="289.5" width="30" height="30" transform="rotate(-180 174.5 289.5)" fill="#3F3F3F" stroke="#3F3F3F"/>
<rect x="174.5" y="117.5" width="30" height="30" transform="rotate(-180 174.5 117.5)" fill="#3F3F3F" stroke="#3F3F3F"/>
<rect x="174.5" y="347.5" width="30" height="30" transform="rotate(-180 174.5 347.5)" fill="#3F3F3F" stroke="#3F3F3F"/>
<rect x="174.5" y="175.5" width="30" height="30" transform="rotate(-180 174.5 175.5)" fill="#3F3F3F" stroke="#3F3F3F"/>
<rect x="174.5" y="260.5" width="30" height="30" transform="rotate(-180 174.5 260.5)" fill="#3F3F3F" stroke="#3F3F3F"/>
</svg>
