<svg width="375" height="404" viewBox="0 0 375 404" fill="none" xmlns="http://www.w3.org/2000/svg">
<rect width="29" height="29" fill="#3F3F3F"/>
<rect y="87" width="29" height="29" fill="#3F3F3F"/>
<rect y="29" width="29" height="29" fill="#3F3F3F"/>
<rect y="201" width="29" height="29" fill="#3F3F3F"/>
<rect y="116" width="29" height="29" fill="#3F3F3F"/>
<rect x="231" width="29" height="29" fill="#3F3F3F"/>
<rect x="231" y="87" width="29" height="29" fill="#3F3F3F"/>
<rect x="231" y="259" width="29" height="29" fill="#3F3F3F"/>
<rect x="231" y="29" width="29" height="29" fill="#3F3F3F"/>
<rect x="231" y="201" width="29" height="29" fill="#3F3F3F"/>
<rect x="231" y="116" width="29" height="29" fill="#3F3F3F"/>
<rect x="231" y="58" width="29" height="29" fill="#3F3F3F"/>
<rect x="231" y="145" width="29" height="29" fill="#3F3F3F"/>
<rect x="115" width="29" height="29" fill="#3F3F3F"/>
<rect x="115" y="87" width="29" height="29" fill="#3F3F3F"/>
<rect x="115" y="29" width="29" height="29" fill="#3F3F3F"/>
<rect x="115" y="201" width="29" height="29" fill="#3F3F3F"/>
<rect x="115" y="288" width="29" height="29" fill="#3F3F3F"/>
<rect x="115" y="58" width="29" height="29" fill="#3F3F3F"/>
<rect x="115" y="145" width="29" height="29" fill="#3F3F3F"/>
<rect x="58" width="29" height="29" fill="#3F3F3F"/>
<rect x="58" y="172" width="29" height="29" fill="#3F3F3F"/>
<rect x="58" y="87" width="29" height="29" fill="#3F3F3F"/>
<rect x="58" y="29" width="29" height="29" fill="#3F3F3F"/>
<rect x="58" y="116" width="29" height="29" fill="#3F3F3F"/>
<rect x="58" y="58" width="29" height="29" fill="#3F3F3F"/>
<rect x="288" width="29" height="29" fill="#3F3F3F"/>
<rect x="288" y="172" width="29" height="29" fill="#3F3F3F"/>
<rect x="288" y="87" width="29" height="29" fill="#3F3F3F"/>
<rect x="288" y="259" width="29" height="29" fill="#3F3F3F"/>
<rect x="288" y="317" width="29" height="29" fill="#3F3F3F"/>
<rect x="288" y="58" width="29" height="29" fill="#3F3F3F"/>
<rect x="288" y="230" width="29" height="29" fill="#3F3F3F"/>
<rect x="288" y="145" width="29" height="29" fill="#3F3F3F"/>
<rect x="173" width="29" height="29" fill="#3F3F3F"/>
<rect x="173" y="172" width="29" height="29" fill="#3F3F3F"/>
<rect x="173" y="87" width="29" height="29" fill="#3F3F3F"/>
<rect x="173" y="29" width="29" height="29" fill="#3F3F3F"/>
<rect x="173" y="230" width="29" height="29" fill="#3F3F3F"/>
<rect x="173" y="145" width="29" height="29" fill="#3F3F3F"/>
<rect x="29" width="29" height="29" fill="#3F3F3F"/>
<rect x="29" y="87" width="29" height="29" fill="#3F3F3F"/>
<rect x="29" y="58" width="29" height="29" fill="#3F3F3F"/>
<rect x="29" y="145" width="29" height="29" fill="#3F3F3F"/>
<rect x="260" width="28" height="29" fill="#3F3F3F"/>
<rect x="260" y="172" width="28" height="29" fill="#3F3F3F"/>
<rect x="260" y="87" width="28" height="29" fill="#3F3F3F"/>
<rect x="260" y="116" width="28" height="29" fill="#3F3F3F"/>
<rect x="260" y="259" width="28" height="29" fill="#3F3F3F"/>
<rect x="260" y="29" width="28" height="29" fill="#3F3F3F"/>
<rect x="260" y="201" width="28" height="29" fill="#3F3F3F"/>
<rect x="260" y="288" width="28" height="29" fill="#3F3F3F"/>
<rect x="260" y="230" width="28" height="29" fill="#3F3F3F"/>
<rect x="260" y="145" width="28" height="29" fill="#3F3F3F"/>
<rect x="144" width="29" height="29" fill="#3F3F3F"/>
<rect x="144" y="172" width="29" height="29" fill="#3F3F3F"/>
<rect x="144" y="87" width="29" height="29" fill="#3F3F3F"/>
<rect x="144" y="259" width="29" height="29" fill="#3F3F3F"/>
<rect x="144" y="29" width="29" height="29" fill="#3F3F3F"/>
<rect x="144" y="116" width="29" height="29" fill="#3F3F3F"/>
<rect x="144" y="58" width="29" height="29" fill="#3F3F3F"/>
<rect x="87" width="28" height="29" fill="#3F3F3F"/>
<rect x="87" y="29" width="28" height="29" fill="#3F3F3F"/>
<rect x="87" y="116" width="28" height="29" fill="#3F3F3F"/>
<rect x="87" y="58" width="28" height="29" fill="#3F3F3F"/>
<rect x="317" width="29" height="29" fill="#3F3F3F"/>
<rect x="317" y="172" width="29" height="29" fill="#3F3F3F"/>
<rect x="317" y="87" width="29" height="29" fill="#3F3F3F"/>
<rect x="317" y="259" width="29" height="29" fill="#3F3F3F"/>
<rect x="317" y="29" width="29" height="29" fill="#3F3F3F"/>
<rect x="317" y="201" width="29" height="29" fill="#3F3F3F"/>
<rect x="317" y="116" width="29" height="29" fill="#3F3F3F"/>
<rect x="317" y="288" width="29" height="29" fill="#3F3F3F"/>
<rect x="317" y="317" width="29" height="29" fill="#3F3F3F"/>
<rect x="317" y="346" width="29" height="29" fill="#3F3F3F"/>
<rect x="317" y="58" width="29" height="29" fill="#3F3F3F"/>
<rect x="346" width="29" height="29" fill="#3F3F3F"/>
<rect x="346" y="87" width="29" height="29" fill="#3F3F3F"/>
<rect x="346" y="29" width="29" height="29" fill="#3F3F3F"/>
<rect x="346" y="201" width="29" height="29" fill="#3F3F3F"/>
<rect x="346" y="288" width="29" height="29" fill="#3F3F3F"/>
<rect x="346" y="375" width="29" height="29" fill="#3F3F3F"/>
<rect x="346" y="58" width="29" height="29" fill="#3F3F3F"/>
<rect x="346" y="145" width="29" height="29" fill="#3F3F3F"/>
<rect x="202" width="29" height="29" fill="#3F3F3F"/>
<rect x="202" y="172" width="29" height="29" fill="#3F3F3F"/>
<rect x="202" y="87" width="29" height="29" fill="#3F3F3F"/>
<rect x="202" y="29" width="29" height="29" fill="#3F3F3F"/>
<rect x="202" y="201" width="29" height="29" fill="#3F3F3F"/>
<rect x="202" y="116" width="29" height="29" fill="#3F3F3F"/>
<rect x="202" y="288" width="29" height="29" fill="#3F3F3F"/>
<rect x="202" y="58" width="29" height="29" fill="#3F3F3F"/>
<rect x="202" y="230" width="29" height="29" fill="#3F3F3F"/>
<rect x="202" y="145" width="29" height="29" fill="#3F3F3F"/>
</svg>
