<svg width="377" height="406" viewBox="0 0 377 406" fill="none" xmlns="http://www.w3.org/2000/svg">
<rect x="0.5" y="0.5" width="30" height="30" fill="#3F3F3F" stroke="#3F3F3F"/>
<rect x="0.5" y="87.5" width="30" height="30" fill="#3F3F3F" stroke="#3F3F3F"/>
<rect x="0.5" y="29.5" width="30" height="30" fill="#3F3F3F" stroke="#3F3F3F"/>
<rect x="0.5" y="201.5" width="30" height="30" fill="#3F3F3F" stroke="#3F3F3F"/>
<rect x="0.5" y="116.5" width="30" height="30" fill="#3F3F3F" stroke="#3F3F3F"/>
<rect x="231.5" y="0.5" width="30" height="30" fill="#3F3F3F" stroke="#3F3F3F"/>
<rect x="231.5" y="87.5" width="30" height="30" fill="#3F3F3F" stroke="#3F3F3F"/>
<rect x="231.5" y="259.5" width="30" height="30" fill="#3F3F3F" stroke="#3F3F3F"/>
<rect x="231.5" y="29.5" width="30" height="30" fill="#3F3F3F" stroke="#3F3F3F"/>
<rect x="231.5" y="201.5" width="30" height="30" fill="#3F3F3F" stroke="#3F3F3F"/>
<rect x="231.5" y="116.5" width="30" height="30" fill="#3F3F3F" stroke="#3F3F3F"/>
<rect x="231.5" y="58.5" width="30" height="30" fill="#3F3F3F" stroke="#3F3F3F"/>
<rect x="231.5" y="145.5" width="30" height="30" fill="#3F3F3F" stroke="#3F3F3F"/>
<rect x="115.5" y="0.5" width="30" height="30" fill="#3F3F3F" stroke="#3F3F3F"/>
<rect x="115.5" y="87.5" width="30" height="30" fill="#3F3F3F" stroke="#3F3F3F"/>
<rect x="115.5" y="29.5" width="30" height="30" fill="#3F3F3F" stroke="#3F3F3F"/>
<rect x="115.5" y="201.5" width="30" height="30" fill="#3F3F3F" stroke="#3F3F3F"/>
<rect x="115.5" y="288.5" width="30" height="30" fill="#3F3F3F" stroke="#3F3F3F"/>
<rect x="115.5" y="58.5" width="30" height="30" fill="#3F3F3F" stroke="#3F3F3F"/>
<rect x="115.5" y="145.5" width="30" height="30" fill="#3F3F3F" stroke="#3F3F3F"/>
<rect x="58.5" y="0.5" width="30" height="30" fill="#3F3F3F" stroke="#3F3F3F"/>
<rect x="58.5" y="172.5" width="30" height="30" fill="#3F3F3F" stroke="#3F3F3F"/>
<rect x="58.5" y="87.5" width="30" height="30" fill="#3F3F3F" stroke="#3F3F3F"/>
<rect x="58.5" y="29.5" width="30" height="30" fill="#3F3F3F" stroke="#3F3F3F"/>
<rect x="58.5" y="116.5" width="30" height="30" fill="#3F3F3F" stroke="#3F3F3F"/>
<rect x="58.5" y="58.5" width="30" height="30" fill="#3F3F3F" stroke="#3F3F3F"/>
<rect x="288.5" y="230.5" width="30" height="30" stroke="#3F3F3F"/>
<rect x="288.5" y="288.5" width="30" height="30" stroke="#3F3F3F"/>
<rect x="288.5" y="317.5" width="30" height="30" stroke="#3F3F3F"/>
<rect x="288.5" y="0.5" width="30" height="30" fill="#3F3F3F" stroke="#3F3F3F"/>
<rect x="288.5" y="172.5" width="30" height="30" fill="#3F3F3F" stroke="#3F3F3F"/>
<rect x="288.5" y="87.5" width="30" height="30" fill="#3F3F3F" stroke="#3F3F3F"/>
<rect x="288.5" y="259.5" width="30" height="30" fill="#3F3F3F" stroke="#3F3F3F"/>
<rect x="288.5" y="317.5" width="30" height="30" fill="#3F3F3F" stroke="#3F3F3F"/>
<rect x="288.5" y="58.5" width="30" height="30" fill="#3F3F3F" stroke="#3F3F3F"/>
<rect x="288.5" y="230.5" width="30" height="30" fill="#3F3F3F" stroke="#3F3F3F"/>
<rect x="288.5" y="145.5" width="30" height="30" fill="#3F3F3F" stroke="#3F3F3F"/>
<rect x="317.5" y="201.5" width="30" height="30" stroke="#3F3F3F"/>
<rect x="173.5" y="0.5" width="30" height="30" fill="#3F3F3F" stroke="#3F3F3F"/>
<rect x="173.5" y="172.5" width="30" height="30" fill="#3F3F3F" stroke="#3F3F3F"/>
<rect x="173.5" y="87.5" width="30" height="30" fill="#3F3F3F" stroke="#3F3F3F"/>
<rect x="173.5" y="29.5" width="30" height="30" fill="#3F3F3F" stroke="#3F3F3F"/>
<rect x="173.5" y="230.5" width="30" height="30" fill="#3F3F3F" stroke="#3F3F3F"/>
<rect x="173.5" y="145.5" width="30" height="30" fill="#3F3F3F" stroke="#3F3F3F"/>
<rect x="29.5" y="0.5" width="30" height="30" fill="#3F3F3F" stroke="#3F3F3F"/>
<rect x="29.5" y="87.5" width="30" height="30" fill="#3F3F3F" stroke="#3F3F3F"/>
<rect x="29.5" y="58.5" width="30" height="30" fill="#3F3F3F" stroke="#3F3F3F"/>
<rect x="29.5" y="145.5" width="30" height="30" fill="#3F3F3F" stroke="#3F3F3F"/>
<rect x="260.5" y="259.5" width="29" height="30" stroke="#3F3F3F"/>
<rect x="260.5" y="288.5" width="29" height="30" stroke="#3F3F3F"/>
<rect x="260.5" y="0.5" width="29" height="30" fill="#3F3F3F" stroke="#3F3F3F"/>
<rect x="260.5" y="172.5" width="29" height="30" fill="#3F3F3F" stroke="#3F3F3F"/>
<rect x="260.5" y="87.5" width="29" height="30" fill="#3F3F3F" stroke="#3F3F3F"/>
<rect x="260.5" y="116.5" width="29" height="30" fill="#3F3F3F" stroke="#3F3F3F"/>
<rect x="260.5" y="259.5" width="29" height="30" fill="#3F3F3F" stroke="#3F3F3F"/>
<rect x="260.5" y="29.5" width="29" height="30" fill="#3F3F3F" stroke="#3F3F3F"/>
<rect x="260.5" y="201.5" width="29" height="30" fill="#3F3F3F" stroke="#3F3F3F"/>
<rect x="260.5" y="288.5" width="29" height="30" fill="#3F3F3F" stroke="#3F3F3F"/>
<rect x="260.5" y="230.5" width="29" height="30" fill="#3F3F3F" stroke="#3F3F3F"/>
<rect x="260.5" y="145.5" width="29" height="30" fill="#3F3F3F" stroke="#3F3F3F"/>
<rect x="144.5" y="0.5" width="30" height="30" fill="#3F3F3F" stroke="#3F3F3F"/>
<rect x="144.5" y="172.5" width="30" height="30" fill="#3F3F3F" stroke="#3F3F3F"/>
<rect x="144.5" y="87.5" width="30" height="30" fill="#3F3F3F" stroke="#3F3F3F"/>
<rect x="144.5" y="259.5" width="30" height="30" fill="#3F3F3F" stroke="#3F3F3F"/>
<rect x="144.5" y="29.5" width="30" height="30" fill="#3F3F3F" stroke="#3F3F3F"/>
<rect x="144.5" y="116.5" width="30" height="30" fill="#3F3F3F" stroke="#3F3F3F"/>
<rect x="144.5" y="58.5" width="30" height="30" fill="#3F3F3F" stroke="#3F3F3F"/>
<rect x="87.5" y="0.5" width="29" height="30" fill="#3F3F3F" stroke="#3F3F3F"/>
<rect x="87.5" y="29.5" width="29" height="30" fill="#3F3F3F" stroke="#3F3F3F"/>
<rect x="87.5" y="116.5" width="29" height="30" fill="#3F3F3F" stroke="#3F3F3F"/>
<rect x="87.5" y="58.5" width="29" height="30" fill="#3F3F3F" stroke="#3F3F3F"/>
<rect x="317.5" y="0.5" width="30" height="30" fill="#3F3F3F" stroke="#3F3F3F"/>
<rect x="317.5" y="172.5" width="30" height="30" fill="#3F3F3F" stroke="#3F3F3F"/>
<rect x="317.5" y="87.5" width="30" height="30" fill="#3F3F3F" stroke="#3F3F3F"/>
<rect x="317.5" y="259.5" width="30" height="30" fill="#3F3F3F" stroke="#3F3F3F"/>
<rect x="317.5" y="29.5" width="30" height="30" fill="#3F3F3F" stroke="#3F3F3F"/>
<rect x="317.5" y="201.5" width="30" height="30" fill="#3F3F3F" stroke="#3F3F3F"/>
<rect x="317.5" y="116.5" width="30" height="30" fill="#3F3F3F" stroke="#3F3F3F"/>
<rect x="317.5" y="288.5" width="30" height="30" fill="#3F3F3F" stroke="#3F3F3F"/>
<rect x="317.5" y="317.5" width="30" height="30" fill="#3F3F3F" stroke="#3F3F3F"/>
<rect x="317.5" y="346.5" width="30" height="30" fill="#3F3F3F" stroke="#3F3F3F"/>
<rect x="317.5" y="58.5" width="30" height="30" fill="#3F3F3F" stroke="#3F3F3F"/>
<rect x="346.5" y="288.5" width="30" height="30" stroke="#3F3F3F"/>
<rect x="346.5" y="0.5" width="30" height="30" fill="#3F3F3F" stroke="#3F3F3F"/>
<rect x="346.5" y="87.5" width="30" height="30" fill="#3F3F3F" stroke="#3F3F3F"/>
<rect x="346.5" y="29.5" width="30" height="30" fill="#3F3F3F" stroke="#3F3F3F"/>
<rect x="346.5" y="201.5" width="30" height="30" fill="#3F3F3F" stroke="#3F3F3F"/>
<rect x="346.5" y="288.5" width="30" height="30" fill="#3F3F3F" stroke="#3F3F3F"/>
<rect x="346.5" y="375.5" width="30" height="30" fill="#3F3F3F" stroke="#3F3F3F"/>
<rect x="346.5" y="58.5" width="30" height="30" fill="#3F3F3F" stroke="#3F3F3F"/>
<rect x="346.5" y="145.5" width="30" height="30" fill="#3F3F3F" stroke="#3F3F3F"/>
<rect x="202.5" y="0.5" width="30" height="30" fill="#3F3F3F" stroke="#3F3F3F"/>
<rect x="202.5" y="172.5" width="30" height="30" fill="#3F3F3F" stroke="#3F3F3F"/>
<rect x="202.5" y="87.5" width="30" height="30" fill="#3F3F3F" stroke="#3F3F3F"/>
<rect x="202.5" y="29.5" width="30" height="30" fill="#3F3F3F" stroke="#3F3F3F"/>
<rect x="202.5" y="201.5" width="30" height="30" fill="#3F3F3F" stroke="#3F3F3F"/>
<rect x="202.5" y="116.5" width="30" height="30" fill="#3F3F3F" stroke="#3F3F3F"/>
<rect x="202.5" y="288.5" width="30" height="30" fill="#3F3F3F" stroke="#3F3F3F"/>
<rect x="202.5" y="58.5" width="30" height="30" fill="#3F3F3F" stroke="#3F3F3F"/>
<rect x="202.5" y="230.5" width="30" height="30" fill="#3F3F3F" stroke="#3F3F3F"/>
<rect x="202.5" y="145.5" width="30" height="30" fill="#3F3F3F" stroke="#3F3F3F"/>
</svg>
