<svg width="69" height="69" viewBox="0 0 69 69" fill="none" xmlns="http://www.w3.org/2000/svg">
<rect y="0.116821" width="68.1166" height="68.1166" fill="#131313"/>
<path d="M0 34.175C0 15.3652 15.2485 0.116699 34.0583 0.116699C52.8681 0.116699 68.1166 15.3652 68.1166 34.175C68.1166 52.9848 52.8681 68.2333 34.0583 68.2333C15.2485 68.2333 0 52.9848 0 34.175Z" fill="white"/>
<path d="M27.2414 54.6098C31.0034 54.6098 34.053 51.5601 34.053 47.7981V40.9865H27.2414C23.4793 40.9865 20.4297 44.0362 20.4297 47.7981C20.4297 51.5601 23.4793 54.6098 27.2414 54.6098Z" fill="#0ACF83"/>
<path d="M20.4297 34.1745C20.4297 30.4125 23.4793 27.3628 27.2414 27.3628H34.053V40.9861H27.2414C23.4793 40.9861 20.4297 37.9364 20.4297 34.1745Z" fill="#A259FF"/>
<path d="M20.4297 20.5522C20.4297 16.7901 23.4793 13.7405 27.2414 13.7405H34.053V27.3638H27.2414C23.4793 27.3638 20.4297 24.314 20.4297 20.5522Z" fill="#F24E1E"/>
<path d="M34.0605 13.7405H40.8722C44.6342 13.7405 47.6839 16.7901 47.6839 20.5522C47.6839 24.314 44.6342 27.3638 40.8722 27.3638H34.0605V13.7405Z" fill="#FF7262"/>
<path d="M47.6839 34.1745C47.6839 37.9364 44.6342 40.9861 40.8722 40.9861C37.1102 40.9861 34.0605 37.9364 34.0605 34.1745C34.0605 30.4125 37.1102 27.3628 40.8722 27.3628C44.6342 27.3628 47.6839 30.4125 47.6839 34.1745Z" fill="#1ABCFE"/>
</svg>
