<svg width="69" height="69" viewBox="0 0 69 69" fill="none" xmlns="http://www.w3.org/2000/svg">
<rect y="0.000106812" width="68.1166" height="68.1166" fill="white"/>
<path d="M66.8333 31.0244L37.0987 1.28453C35.3874 -0.428177 32.6102 -0.428177 30.8962 1.28453L24.723 7.46086L32.5552 15.2949C34.3759 14.6802 36.4626 15.0925 37.9133 16.5435C39.3715 18.0037 39.781 20.1087 39.1503 21.9358L46.6987 29.487C48.5249 28.8573 50.6326 29.2642 52.0903 30.7254C54.1296 32.7635 54.1296 36.0675 52.0903 38.1067C50.0511 40.1464 46.7489 40.1464 44.7086 38.1067C43.1754 36.5721 42.7961 34.3192 43.573 32.4295L36.5338 25.3882L36.5327 43.9188C37.0301 44.1643 37.499 44.4924 37.9133 44.9052C39.952 46.9433 39.952 50.2462 37.9133 52.2886C35.8746 54.3267 32.5703 54.3267 30.5337 52.2886C28.4956 50.2468 28.3283 46.9438 30.3659 44.9052C30.8698 44.4017 31.3667 44.0213 31.9062 43.7666V25.0644C31.3667 24.8097 30.8704 24.432 30.3654 23.9253C28.8219 22.382 28.5333 20.1157 29.3253 18.2184L21.6468 10.4951L1.27926 30.8868C-0.433595 32.6011 -0.422806 35.379 1.29005 37.0922L31.0295 66.8321C32.7413 68.5448 35.5207 68.5448 37.2352 66.8321L66.8311 37.2304C68.544 35.5166 68.5456 32.7371 66.8333 31.0244Z" fill="#F34F29"/>
</svg>
