<svg width="69" height="69" viewBox="0 0 69 69" fill="none" xmlns="http://www.w3.org/2000/svg">
<rect x="0.117188" width="68.1166" height="68.1166" fill="black"/>
<path d="M34.1712 -0.000106812C15.3668 -0.000106812 0.117207 15.6346 0.117207 34.9214C0.109524 42.2411 2.35447 49.3782 6.53477 55.324C10.7151 61.2698 16.6193 65.7236 23.4131 68.0559C25.116 68.3777 25.7376 67.2994 25.7376 66.3733C25.7376 65.5429 25.7078 63.3473 25.6907 60.4343C16.2183 62.5429 14.2173 55.7517 14.2173 55.7517C12.6719 51.7169 10.4369 50.643 10.4369 50.643C7.34182 48.4778 10.6668 48.5213 10.6668 48.5213C14.0854 48.7691 15.8819 52.1213 15.8819 52.1213C18.9216 57.456 23.8558 55.9169 25.7972 55.0213C26.1037 52.7647 26.9849 51.2256 27.9599 50.3517C20.3989 49.4691 12.4463 46.4735 12.4463 33.0953C12.4463 29.2823 13.7746 26.1649 15.9543 23.7215C15.601 22.8389 14.4345 19.2867 16.2864 14.4824C16.2864 14.4824 19.1473 13.5433 25.6524 18.0606C28.4313 17.285 31.2989 16.8903 34.1798 16.8867C37.0607 16.8926 39.9282 17.2888 42.7071 18.065C49.208 13.5476 52.0646 14.4867 52.0646 14.4867C53.9208 19.2954 52.7543 22.8432 52.4052 23.7258C54.5892 26.1693 55.9047 29.2866 55.9047 33.0997C55.9047 46.5126 47.9436 49.4648 40.3571 50.33C41.5789 51.4082 42.6688 53.5387 42.6688 56.7952C42.6688 61.4647 42.6262 65.2299 42.6262 66.3733C42.6262 67.3081 43.2393 68.3951 44.9677 68.0516C51.7549 65.7137 57.6518 61.2582 61.8263 55.3139C66.0008 49.3695 68.242 42.2365 68.2338 34.9214C68.2338 15.6346 52.9842 -0.000106812 34.1712 -0.000106812Z" fill="white"/>
</svg>
