<svg width="69" height="69" viewBox="0 0 69 69" fill="none" xmlns="http://www.w3.org/2000/svg">
<rect x="0.117188" y="0.233459" width="68.1166" height="68.1166" fill="white"/>
<path d="M25.5005 42.7494L25.6049 42.7974L25.7909 42.8822C26.0283 42.9889 26.2679 43.0946 26.5097 43.1962L26.6616 43.26C26.9391 43.3749 27.2181 43.4842 27.5004 43.5893L27.7049 43.6649C27.9655 43.7609 28.2305 43.8538 28.4961 43.9422L28.5956 43.9743C28.8871 44.0703 29.1813 44.1597 29.4782 44.247L29.6918 44.3067C29.9936 44.393 30.2916 44.4957 30.6031 44.5503C50.3722 47.9535 56.1141 33.3339 56.1141 33.3339C51.2911 39.2661 42.7305 40.8311 34.6193 39.0889C34.3121 39.0235 34.0135 38.9326 33.7139 38.8489L33.4884 38.7846C33.1958 38.6998 32.9049 38.6104 32.6166 38.517L32.4971 38.4762C32.2386 38.3904 31.9828 38.2995 31.7286 38.2071L31.5133 38.1274C31.2343 38.0238 30.9574 37.915 30.6837 37.8016L30.5177 37.7322C30.2824 37.6316 30.0493 37.53 29.8179 37.4248L29.615 37.3329C29.4333 37.2492 29.2532 37.1598 29.0737 37.0725L28.7124 36.8938C28.4934 36.783 28.2781 36.6681 28.064 36.5502L27.8449 36.4348C27.5599 36.276 27.2782 36.1121 26.9996 35.9456L26.772 35.8026C26.5697 35.6796 26.3685 35.5545 26.1706 35.4253L25.977 35.2966C25.7855 35.169 25.5962 35.0398 25.4086 34.9086L25.1565 34.7283C24.9846 34.6042 24.8131 34.4791 24.6438 34.3505L24.4151 34.1769C24.1998 34.0094 23.9867 33.8414 23.7758 33.6688L23.7061 33.6132C23.4773 33.4253 23.2539 33.2317 23.0333 33.0377L22.844 32.8656C22.6801 32.7191 22.5195 32.571 22.361 32.4194L22.1717 32.2407C21.9706 32.0461 21.7732 31.849 21.5795 31.6494L21.5503 31.6198C21.3454 31.4084 21.1453 31.1924 20.9495 30.9744L20.7921 30.7977C20.6461 30.6317 20.5012 30.4632 20.36 30.2932L20.2015 30.1074C20.0312 29.899 19.8652 29.6912 19.7024 29.4798C15.1995 23.6804 13.5814 15.6818 17.1805 9.11285L13.9902 12.9332C9.90217 18.4799 10.4116 25.6968 13.5338 31.5912L13.7625 32.0104L13.9091 32.2759L14 32.4286L14.1627 32.7038C14.2596 32.8651 14.3585 33.0255 14.4602 33.1858L14.6306 33.4508C14.743 33.6223 14.8582 33.7919 14.9767 33.9614L15.1238 34.1769C15.2866 34.4056 15.4531 34.6344 15.6246 34.859L15.6392 34.8769L15.7236 34.9846C15.8723 35.1782 16.0253 35.3691 16.18 35.558L16.352 35.7643C16.4899 35.9282 16.631 36.0916 16.7738 36.254L16.935 36.4353C17.127 36.6492 17.3228 36.8616 17.5229 37.0694L17.5348 37.0812L17.5575 37.1047C17.7522 37.3058 17.9523 37.5019 18.1545 37.699L18.346 37.8813C18.5028 38.0304 18.6618 38.1769 18.823 38.323L19.0182 38.4981C19.2329 38.6891 19.4498 38.8765 19.6715 39.0603L19.6824 39.0679L19.7959 39.1598C19.9912 39.3192 20.1902 39.478 20.3903 39.6337L20.6364 39.8185C20.7997 39.9421 20.9652 40.0641 21.1318 40.1841L21.3962 40.3741C21.5801 40.5017 21.765 40.6273 21.9516 40.7504L22.1544 40.8862L22.2101 40.9235C22.3875 41.0389 22.5687 41.1492 22.7499 41.26L22.9835 41.407C23.261 41.573 23.5433 41.7369 23.8283 41.8952L24.0619 42.0197C24.2717 42.1336 24.4821 42.2454 24.6958 42.3547L25.0462 42.5263L25.5005 42.7494ZM27.4977 23.9617C27.9407 24.5612 28.4312 25.274 29.0191 25.756C29.2321 25.9776 29.455 26.1931 29.6821 26.406L29.8573 26.5684C30.0785 26.7706 30.303 26.9692 30.5344 27.1627L30.5626 27.1852L30.5691 27.1918C30.8259 27.4042 31.0909 27.6085 31.3603 27.8096L31.5404 27.9424C31.8108 28.138 32.0861 28.3299 32.3684 28.5132L32.3927 28.5301L32.7702 28.765L32.9497 28.8773C33.1515 28.9988 33.3554 29.1183 33.5636 29.2317L33.6501 29.2792C33.8291 29.3767 34.0108 29.4727 34.1925 29.5656L34.3851 29.6611L34.7647 29.8464L34.8221 29.8709C35.0827 29.992 35.3456 30.1084 35.6138 30.2192L35.7885 30.2871C36.0027 30.3729 36.2195 30.4571 36.4369 30.5357L36.7149 30.6317C36.9129 30.7012 37.1108 30.7645 37.3109 30.8273L37.5808 30.909C37.8652 30.9922 38.1459 31.0974 38.4423 31.1439C53.7053 33.532 57.2293 22.436 57.2293 22.436C54.0525 26.7552 47.9012 28.8155 41.3368 27.2071C41.0453 27.1346 40.7575 27.0565 40.4725 26.9712L40.2124 26.8921C40.0096 26.8303 39.8079 26.7644 39.6078 26.6955L39.3352 26.5995C39.1162 26.5198 38.8988 26.4376 38.684 26.3519L38.5088 26.2814C38.2395 26.1706 37.974 26.0542 37.7127 25.9316L37.3131 25.7396L37.0827 25.6278C36.9129 25.541 36.7441 25.4501 36.5776 25.3587L36.457 25.2939C36.2498 25.18 36.0465 25.0626 35.8447 24.9421L35.6603 24.8252L35.2645 24.578C34.9827 24.3947 34.709 24.2032 34.4397 24.0087L34.2542 23.8703C31.3808 21.7294 29.1034 18.8016 28.0202 15.4821C26.8855 12.0406 27.13 8.1764 29.0959 5.04078L26.6806 8.26065C23.7244 12.2765 23.8851 17.6537 26.1911 21.9014C26.5773 22.6127 27.0115 23.3041 27.4977 23.9617ZM43.5855 18.993L43.9646 19.1171L44.1317 19.1671C44.3118 19.2203 44.4897 19.2825 44.6753 19.3152C53.1028 20.8527 55.3894 15.2319 55.9978 14.4047C53.9952 17.1268 50.6302 17.7798 46.5011 16.8337C46.1749 16.7591 45.8164 16.6483 45.5016 16.5426C45.0987 16.4068 44.7018 16.2526 44.3156 16.078C43.5823 15.7451 42.8835 15.3422 42.2356 14.8796C38.5407 12.2321 36.2455 7.18378 38.6565 3.07138L37.352 4.76863C35.6095 7.19042 35.4381 10.1979 36.6473 12.8714C37.9226 15.7104 40.5358 17.9366 43.5855 18.993ZM35.4505 51.5701H33.165C33.0384 51.5701 32.9124 51.6661 32.8854 51.783L32.0742 55.3266L31.2629 58.8702C31.2364 58.9871 31.1104 59.0831 30.9839 59.0831H29.3663C27.766 59.0831 27.9509 58.0379 28.2787 56.6062L28.2884 56.5628L28.3241 56.382L28.3306 56.3483L28.4036 55.9807L28.482 55.587L28.5653 55.1862L28.9342 53.4848L29.3035 51.7835C29.329 51.6661 29.2457 51.5696 29.1191 51.5696H26.7736C26.647 51.5696 26.5216 51.6656 26.4956 51.783L25.991 54.0419L25.487 56.3013L25.4859 56.3044L25.4394 56.5148C24.8585 59.0183 25.0121 61.4064 28.1694 61.4814L28.2614 61.4829H33.2169C33.3435 61.4829 33.4695 61.387 33.496 61.27L34.5646 56.527L35.6333 51.7835C35.6598 51.6661 35.5776 51.5706 35.4505 51.5701ZM10.9752 51.5451H8.46575C8.33866 51.5451 8.21211 51.6411 8.18399 51.7575L7.94603 52.7491L7.70807 53.7407C7.68048 53.8576 7.76107 53.9531 7.88816 53.9531H10.417C10.5441 53.9531 10.6701 53.8571 10.6972 53.7401L10.927 52.7491L11.1569 51.758C11.1834 51.6411 11.1022 51.5451 10.9752 51.5451ZM10.2472 54.6311H7.7178C7.59125 54.6311 7.46416 54.7271 7.43603 54.8436L7.08071 56.3294L6.72594 57.8148L6.62697 58.2406L6.28571 59.7571L5.94499 61.2741C5.91849 61.391 5.86387 61.58 5.82331 61.6933C5.82331 61.6933 5.35063 63.0209 4.55617 63.0056L4.45666 63.0035L3.76928 62.9918C3.64272 62.9902 3.51509 63.0837 3.48535 63.1996L3.22305 64.2407L2.96129 65.2813C2.93155 65.3977 3.01159 65.4937 3.1376 65.4958C3.5881 65.5009 4.59727 65.5116 5.20786 65.5116C7.19212 65.5116 8.23861 64.4736 8.90868 61.4865L9.69341 58.0583L10.4295 54.8431C10.456 54.7271 10.3738 54.6311 10.2472 54.6311ZM56.821 53.8275L56.7161 53.4185L56.6128 52.9998L56.5603 52.7884C56.3548 52.0342 55.7518 51.5997 54.4419 51.5997L52.403 51.5977L50.5253 51.5951H48.4123C48.2858 51.5951 48.1603 51.6911 48.1338 51.808L48.0402 52.2247L47.9299 52.7169L47.8991 52.8553L46.9478 57.0626L46.0446 61.0566C46.0176 61.174 46.0089 61.318 46.0241 61.3762C46.0392 61.4349 46.2831 61.4829 46.4097 61.4829H48.3155C48.4426 61.4829 48.6032 61.4615 48.6724 61.4349C48.7417 61.4084 48.8439 61.173 48.8693 61.0561L49.2079 59.4737L49.547 57.8908L49.5475 57.8883L49.5929 57.6774L50.0039 55.8597L50.3668 54.2543C50.3939 54.1374 50.5188 54.0419 50.6454 54.0414L56.6425 54.0388C56.7696 54.0399 56.8496 53.9444 56.821 53.8275ZM64.5412 50.1307L64.0793 50.1322H62.16C62.0329 50.1322 61.8701 50.2134 61.7992 50.3125L57.5543 56.1834C57.4829 56.2824 57.4013 56.2681 57.3732 56.1517L57.0606 54.8584C57.0324 54.7414 56.9053 54.646 56.7783 54.646H54.0498C53.9227 54.646 53.8476 54.7399 53.8822 54.8548L55.105 58.8993C55.1396 59.0147 55.1423 59.2036 55.1109 59.32L54.5782 61.2772C54.5463 61.3936 54.6242 61.4881 54.7513 61.4881H57.4483C57.5749 61.4881 57.7047 61.3931 57.736 61.2772L58.2693 59.32C58.3007 59.2031 58.3888 59.0305 58.4656 58.9345L65.3567 50.2997C65.4335 50.2037 65.3919 50.1256 65.2653 50.1266L64.5412 50.1307ZM42.8619 55.1954V55.1933C42.8462 55.323 42.7191 55.4185 42.592 55.4185H39.1324C39.0123 55.4185 38.9518 55.3419 38.9696 55.2469L38.9728 55.2393L38.9707 55.2403L38.9723 55.2296L38.988 55.1739C39.3184 54.3447 39.9912 53.8004 41.2562 53.8004C42.6807 53.7999 42.9587 54.4565 42.8619 55.1954ZM41.8468 51.4251C37.4061 51.4251 36.3537 53.9699 35.7631 56.5388C35.173 59.1571 35.2233 61.6045 39.8192 61.6045H40.3763L40.5147 61.604H40.5472L41.0988 61.6024H41.1085C42.3221 61.5978 43.5395 61.5892 44.0322 61.5856C44.1582 61.5835 44.2815 61.488 44.3075 61.3711L44.4935 60.5128L44.5298 60.3458L44.7515 59.3216C44.7769 59.2046 44.6942 59.1081 44.5671 59.1081H40.4358C38.7922 59.1081 38.3044 58.6961 38.4845 57.4839H45.0884L45.0879 57.4844L45.0922 57.4839C45.1971 57.4824 45.2945 57.4139 45.3329 57.3231L45.3486 57.2689L45.348 57.2694C46.3285 53.7774 46.0473 51.4256 41.8468 51.4251ZM20.8576 55.1821L20.7948 55.3909L20.2962 57.0601L19.7975 58.7282C19.7635 58.8441 19.631 58.9381 19.5039 58.9381H16.8647C14.8626 58.9381 14.3747 57.4594 14.8626 55.2791C15.3498 53.0488 16.3055 51.6625 18.2762 51.5221C20.9695 51.3301 21.5082 53.1182 20.8576 55.1821ZM22.6682 58.8099C22.6682 58.8099 23.9126 55.9567 24.195 54.3095C24.5806 52.1042 23.4108 48.9047 18.8928 48.9047C14.4007 48.9047 12.4494 51.9586 11.7053 55.2791C10.9611 58.6236 11.9362 61.556 16.4028 61.532L19.9268 61.5197L23.2199 61.5085C23.3464 61.5075 23.4762 61.4125 23.5087 61.2971L24.0825 59.2312C24.1144 59.1148 24.037 59.0198 23.9099 59.0188L23.3599 59.0157L22.8099 59.0126C22.7023 59.0121 22.6406 58.9458 22.6536 58.8584L22.6682 58.8099ZM44.9067 56.8998C44.9067 56.9789 44.8391 57.0432 44.7553 57.0432C44.672 57.0432 44.6039 56.9789 44.6039 56.8998C44.6039 56.8211 44.6715 56.7573 44.7553 56.7573C44.8391 56.7573 44.9067 56.8211 44.9067 56.8998Z" fill="#0868AC"/>
</svg>
