<svg width="69" height="69" viewBox="0 0 69 69" fill="none" xmlns="http://www.w3.org/2000/svg">
<rect y="0.233459" width="68.1166" height="68.1166" fill="#131313"/>
<path d="M0 0.233337H68.1166V68.35H0V0.233337Z" fill="#F7DF1E"/>
<path d="M17.9104 57.1562L23.1229 54.0015C24.1287 55.7845 25.0435 57.2932 27.2379 57.2932C29.3412 57.2932 30.6677 56.4705 30.6677 53.2701V31.5052H37.0688V53.3606C37.0688 59.9905 33.1824 63.0084 27.5122 63.0084C22.3915 63.0084 19.4191 60.3563 17.9102 57.1557M40.5456 56.4702L45.7576 53.4526C47.1298 55.6933 48.9131 57.3393 52.0677 57.3393C54.7203 57.3393 56.4115 56.0131 56.4115 54.1841C56.4115 51.9894 54.674 51.212 51.7476 49.9321L50.1477 49.2456C45.5293 47.2801 42.4659 44.8109 42.4659 39.5983C42.4659 34.7972 46.1237 31.1391 51.8394 31.1391C55.9089 31.1391 58.8352 32.5568 60.9383 36.2604L55.9541 39.4613C54.8565 37.4952 53.6682 36.718 51.8391 36.718C49.9643 36.718 48.7755 37.9069 48.7755 39.4613C48.7755 41.3816 49.9643 42.1594 52.7076 43.3482L54.3078 44.0339C59.7492 46.3661 62.8126 48.7435 62.8126 54.0928C62.8126 59.8545 58.286 63.0092 52.2047 63.0092C46.2608 63.0092 42.4199 60.1743 40.5454 56.4705" fill="black"/>
</svg>
