<svg width="22" height="35" viewBox="0 0 22 35" fill="none" xmlns="http://www.w3.org/2000/svg">
<path d="M18.7355 0H3.7872C2.02543 0 0.583984 1.44145 0.583984 3.20321V30.9644C0.583984 32.7262 2.02543 34.1676 3.7872 34.1676H18.7355C20.4973 34.1676 21.9387 32.7262 21.9387 30.9644V3.20321C21.9387 1.44145 20.4973 0 18.7355 0ZM6.99041 1.60161H15.5323V2.66934H6.99041V1.60161ZM11.2614 32.0321C10.695 32.0321 10.1518 31.8071 9.75135 31.4067C9.35087 31.0062 9.12588 30.463 9.12588 29.8967C9.12588 29.3303 9.35087 28.7871 9.75135 28.3866C10.1518 27.9862 10.695 27.7612 11.2614 27.7612C11.8277 27.7612 12.3709 27.9862 12.7714 28.3866C13.1718 28.7871 13.3968 29.3303 13.3968 29.8967C13.3968 30.463 13.1718 31.0062 12.7714 31.4067C12.3709 31.8071 11.8277 32.0321 11.2614 32.0321ZM19.8033 25.6257H2.71946V4.27095H19.8033V25.6257Z" fill="#D3D3D3"/>
</svg>
