<svg width="24" height="24" viewBox="0 0 24 24" fill="none" xmlns="http://www.w3.org/2000/svg">
<path d="M8.99979 3.723C6.75813 4.23409 4.79696 5.58344 3.51843 7.49436C2.2399 9.40527 1.74091 11.7329 2.12379 14M8.99979 3.723L5.99979 2.5M8.99979 3.723L7.99979 6.5M19.0638 16.5C19.6814 15.2571 20.0018 13.8878 19.9998 12.5C19.9998 8.04 16.7568 4.339 12.4998 3.624M19.0638 16.5L21.9998 14.5M19.0638 16.5L17.4998 13.5M3.51579 17.5C4.33748 18.7314 5.45055 19.7408 6.75613 20.4386C8.06172 21.1364 9.51942 21.501 10.9998 21.5C13.2141 21.5028 15.3513 20.6864 16.9998 19.208M3.51579 17.5H6.99979M3.51579 17.5V21" stroke="black" stroke-width="1.5" stroke-linecap="round" stroke-linejoin="round"/>
</svg>
