<svg width="38" height="35" viewBox="0 0 38 35" fill="none" xmlns="http://www.w3.org/2000/svg">
<path d="M34.1676 23.9173H3.41676V3.41676H34.1676M34.1676 0H3.41676C1.52046 0 0 1.52046 0 3.41676V23.9173C0 24.8235 0.359979 25.6926 1.00075 26.3333C1.64151 26.9741 2.51058 27.3341 3.41676 27.3341H15.3754V30.7508H11.9587V34.1676H25.6257V30.7508H22.2089V27.3341H34.1676C35.0738 27.3341 35.9429 26.9741 36.5836 26.3333C37.2244 25.6926 37.5844 24.8235 37.5844 23.9173V3.41676C37.5844 2.51058 37.2244 1.64151 36.5836 1.00075C35.9429 0.359979 35.0738 0 34.1676 0Z" fill="#D3D3D3"/>
</svg>
