<?xml version="1.0" encoding="UTF-8"?>
<svg id="_레이어_1" data-name="레이어 1" xmlns="http://www.w3.org/2000/svg" version="1.1" viewBox="0 0 263 44">
  <defs>
    <style>
      .cls-1 {
        fill: #000;
        stroke-width: 0px;
      }
    </style>
  </defs>
  <path class="cls-1" d="M118.5,34.3V8.9h6.8v4.4c.5-1.6,1.5-2.8,2.6-3.6,1.1-.8,1.9-1.1,3.4-1.2,1.2,0,1.7,0,2.2,0,.5,0,128.3.1,128.6.2v6.3c-.3,0-126.5-.4-127.1-.4h-1.6c-1,0-2,.2-2.8.7-.8.4-1.4,1.1-1.9,1.9l-.3.5c-.9,1.5-1.4,3.2-1.5,5s0,0,0,0v11.7h-8.4Z"/>
  <path class="cls-1" d="M103.2,34.8c-2.6,0-4.9-.5-6.7-1.6-1.9-1.1-3.3-2.6-4.3-4.5-1-2-1.5-4.3-1.5-7s.5-4.9,1.5-6.9c1-2,2.4-3.5,4.3-4.6,1.9-1.1,4-1.7,6.5-1.7s3.2.3,4.7.8c1.5.5,2.7,1.3,3.8,2.4,1.1,1.1,1.9,2.4,2.5,4,.6,1.6.9,3.5.9,5.7v1.9h-21.4v-4.4h14.8c0-1-.2-1.9-.7-2.7-.4-.8-1.1-1.4-1.8-1.8-.8-.5-1.7-.7-2.7-.7s-2,.2-2.8.7c-.8.5-1.5,1.1-1.9,2-.5.8-.7,1.7-.7,2.7v4.2c0,1.3.2,2.3.7,3.3.5.9,1.1,1.6,2,2.1.9.5,1.9.7,3.1.7s1.5-.1,2.1-.3c.7-.2,1.2-.6,1.7-1,.5-.4.8-1,1.1-1.6l6.5.4c-.3,1.6-1,2.9-2,4.1-1,1.2-2.3,2.1-3.9,2.7-1.6.6-3.4,1-5.5,1Z"/>
  <path class="cls-1" d="M70.4,43.8c-.9,0-1.7,0-2.5-.2-.8-.1-1.4-.3-1.9-.5l1.6-5.3c.8.3,1.6.4,2.2.4.7,0,1.3-.1,1.7-.5.5-.3.9-.9,1.2-1.7l.4-1.1-9.1-26.1h7.4l5.3,18.7h.3l5.3-18.7h7.5l-9.9,28.1c-.5,1.4-1.1,2.6-1.9,3.6-.8,1-1.8,1.8-3.1,2.4-1.2.6-2.7.8-4.5.8Z"/>
  <path class="cls-1" d="M48.1,34.8c-1.6,0-3.1-.3-4.3-.8-1.3-.6-2.3-1.4-3-2.5-.7-1.1-1.1-2.5-1.1-4.2s.3-2.6.8-3.6,1.2-1.7,2.1-2.3c.9-.6,1.9-1,3-1.3,1.1-.3,2.3-.5,3.6-.6,1.5-.2,2.7-.3,3.6-.4.9-.1,1.6-.4,2-.6.4-.3.6-.7.6-1.2h0c0-1.1-.3-2-1-2.5-.7-.6-1.6-.9-2.8-.9s-2.3.3-3,.8c-.7.6-1.2,1.2-1.5,2.1l-6.5-.5c.3-1.5,1-2.9,2-4,1-1.1,2.2-2,3.8-2.6,1.5-.6,3.3-.9,5.4-.9s2.8.2,4.1.5c1.3.3,2.5.8,3.5,1.5,1,.7,1.8,1.6,2.4,2.7.6,1.1.9,2.4.9,3.9v17.1h-6.7v-3.5h-.2c-.4.8-1,1.5-1.6,2.1-.7.6-1.5,1.1-2.5,1.4-1,.3-2.1.5-3.3.5ZM50.2,29.9c1,0,2-.2,2.7-.6.8-.4,1.4-1,1.9-1.7.5-.7.7-1.5.7-2.4v-2.7c-.2.1-.5.3-.9.4-.4.1-.8.2-1.3.3-.5,0-.9.2-1.4.2-.5,0-.9.1-1.3.2-.8.1-1.5.3-2.2.6-.6.3-1.1.6-1.4,1.1-.3.4-.5,1-.5,1.7,0,1,.3,1.7,1,2.2.7.5,1.6.7,2.7.7Z"/>
  <path class="cls-1" d="M36.2.4v33.9h-7V.4h7Z"/>
  <path class="cls-1" d="M0,34.3V.4h13.4c2.6,0,4.8.5,6.6,1.5,1.8,1,3.2,2.3,4.1,4.1,1,1.7,1.4,3.7,1.4,6s-.5,4.2-1.5,6c-1,1.7-2.4,3.1-4.2,4-1.8,1-4,1.4-6.6,1.4H4.7v-5.7h7.4c1.4,0,2.5-.2,3.4-.7.9-.5,1.6-1.2,2-2,.5-.9.7-1.8.7-3s-.2-2.1-.7-2.9c-.4-.8-1.1-1.5-2-2-.9-.5-2.1-.7-3.4-.7h-4.8v28H0Z"/>
</svg>