<svg width="69" height="69" viewBox="0 0 69 69" fill="none" xmlns="http://www.w3.org/2000/svg">
<rect x="0.351562" y="0.116577" width="68.1166" height="68.1166" fill="#131313"/>
<path d="M3.18945 3.02771H65.6304V65.3224H3.18945V3.02771Z" fill="url(#paint0_radial_147_16011)"/>
<path d="M3.18964 3.02764H65.6299V65.3223H3.18964V3.02764ZM0.351562 68.2334H68.4682V0.116791H0.351562V68.2334ZM46.2736 28.0621C44.0315 28.0621 43.2653 29.2264 43.2653 30.1871C43.2653 31.235 43.776 31.9627 46.7852 33.5639C51.2411 35.7763 52.6318 37.9006 52.6318 41.016C52.6318 45.6736 49.1692 48.1769 44.4851 48.1769C42.0158 48.1769 39.887 47.6529 38.6668 46.9252C38.4675 46.8378 38.4396 46.6924 38.4396 46.4593V42.1797C38.4396 41.8886 38.5815 41.8012 38.7803 41.947C40.4817 43.0694 42.4622 43.6656 44.4851 43.6644C46.7272 43.6644 47.6638 42.7038 47.6638 41.3939C47.6638 40.346 47.011 39.4144 44.1439 37.9006C40.1137 35.9212 38.4392 33.9126 38.4392 30.5651C38.4392 26.8099 41.3058 23.6954 46.2725 23.6954C48.7134 23.6954 50.4163 24.0739 51.3529 24.5105C51.4463 24.573 51.5218 24.6598 51.5717 24.7621C51.6216 24.8644 51.644 24.9785 51.6367 25.0927V29.0807C51.6367 29.3136 51.4948 29.4592 51.211 29.3717C49.9622 28.5568 48.1175 28.0621 46.2727 28.0621H46.2736ZM21.865 31.526C22.5178 31.5842 23.0288 31.5842 24.164 31.5842C27.4847 31.5842 30.6061 30.3908 30.6061 25.7622C30.6061 22.0653 28.364 20.2023 24.5893 20.2023C23.454 20.2023 22.3755 20.2605 21.8645 20.2898L21.865 31.526ZM16.8131 16.0683C16.8131 15.864 17.2116 15.7189 17.4374 15.7189C19.254 15.6315 21.9502 15.5734 24.76 15.5734C32.6218 15.5734 35.6868 19.998 35.6868 25.6453C35.6868 33.0391 30.4645 36.212 24.0502 36.212C22.9717 36.212 22.6028 36.1539 21.8364 36.1539V47.3321C21.8364 47.5648 21.7512 47.6813 21.4959 47.6813H17.1542C16.9273 47.6813 16.8135 47.5938 16.8135 47.3321V16.0683H16.8131Z" fill="#31C5F0"/>
<defs>
<radialGradient id="paint0_radial_147_16011" cx="0" cy="0" r="1" gradientUnits="userSpaceOnUse" gradientTransform="translate(23.4628 12.8852) scale(47.4679 47.1339)">
<stop stop-color="#34364E" stop-opacity="0.98"/>
<stop offset="1" stop-color="#0C0824"/>
</radialGradient>
</defs>
</svg>
