<svg width="69" height="69" viewBox="0 0 69 69" fill="none" xmlns="http://www.w3.org/2000/svg">
<rect y="0.0584106" width="68.1166" height="68.1166" fill="#D9D9D9"/>
<path d="M0 0.0583496H68.1166V68.175H0V0.0583496Z" fill="#222222"/>
<path d="M34.0067 39.7715C37.1526 39.7715 39.7029 37.2213 39.7029 34.0754C39.7029 30.9295 37.1526 28.3792 34.0067 28.3792C30.8608 28.3792 28.3105 30.9295 28.3105 34.0754C28.3105 37.2213 30.8608 39.7715 34.0067 39.7715Z" fill="#00D8FF"/>
<path d="M34.0054 22.4946C41.6517 22.4946 48.7559 23.592 54.1113 25.4349C60.5642 27.6561 64.5323 31.0237 64.5323 34.0732C64.5323 37.2507 60.327 40.8292 53.3979 43.1238C48.1591 44.8594 41.2639 45.7667 34.0054 45.7667C26.5623 45.7667 19.5165 44.9159 14.2175 43.105C7.51431 40.8141 3.47656 37.1905 3.47656 34.0732C3.47656 31.0482 7.26584 27.7069 13.6284 25.4895C19.0045 23.6165 26.2837 22.4946 34.0054 22.4946Z" stroke="#00D8FF" stroke-width="2.72724" stroke-miterlimit="10"/>
<path d="M23.9253 28.3186C27.7447 21.6945 32.2455 16.0887 36.5186 12.3709C41.667 7.89079 46.5669 6.13639 49.2079 7.65926C51.9599 9.24612 52.9595 14.6769 51.4856 21.8281C50.3712 27.2344 47.7132 33.659 44.0859 39.9481C40.3681 46.3953 36.1101 52.0745 31.8954 55.7603C26.5626 60.423 21.4048 62.1096 18.7054 60.5529C16.0851 59.0413 15.0837 54.0906 16.3392 47.4702C17.4009 41.8719 20.0664 35.0068 23.9253 28.3186Z" stroke="#00D8FF" stroke-width="2.72724" stroke-miterlimit="10"/>
<path d="M23.9337 39.9619C20.103 33.3434 17.494 26.6458 16.406 21.0871C15.0958 14.3895 16.022 9.26745 18.6611 7.74082C21.4113 6.14831 26.6142 7.99495 32.0732 12.8421C36.2013 16.5072 40.4386 22.0188 44.0754 28.3023C47.8044 34.7439 50.5998 41.2683 51.6859 46.7593C53.062 53.7091 51.9476 59.0193 49.2501 60.5799C46.6317 62.0952 41.8429 60.4914 36.734 56.096C32.4196 52.382 27.802 46.6444 23.9337 39.9619Z" stroke="#00D8FF" stroke-width="2.72724" stroke-miterlimit="10"/>
</svg>
