<svg width="69" height="69" viewBox="0 0 69 69" fill="none" xmlns="http://www.w3.org/2000/svg">
<rect x="0.232422" y="0.233337" width="68.1166" height="68.1166" fill="white"/>
<path d="M34.2907 68.3501C53.0994 68.3501 68.349 53.1005 68.349 34.2918C68.349 15.4831 53.0994 0.233459 34.2907 0.233459C15.482 0.233459 0.232422 15.4831 0.232422 34.2918C0.232422 53.1005 15.482 68.3501 34.2907 68.3501ZM18.4281 19.4168C22.8244 15.3043 28.9407 12.151 34.5859 10.1444C44.0797 6.76982 54.1127 8.75939 55.651 14.8133L55.4438 14.6231C56.9338 20.5833 51.7825 27.6958 45.1865 30.2473C39.3115 32.5434 34.4128 32.1631 32.4147 31.5245C30.1129 30.7582 28.7931 29.2682 28.4526 28.4167C28.3248 28.0761 28.112 27.5227 28.4526 27.3524C28.6654 27.2218 28.7506 27.2644 29.3438 27.903C29.9 28.5019 32.0713 30.1168 36.2434 29.6485C47.1846 28.4167 53.738 19.9419 51.6576 15.3894C50.2101 12.1964 41.8205 10.7461 31.305 15.9854C18.4905 22.3714 17.7668 27.6476 17.6816 29.6485C17.3836 35.1404 24.4933 38.0353 28.3248 42.1649C28.4497 42.2501 28.5377 42.3352 28.6229 42.4629C29.7695 41.9946 31.3901 41.7818 33.9445 41.7363C40.1573 41.654 43.6511 45.7382 43.5234 49.3995C43.3956 52.2973 40.7533 53.4893 40.285 53.5744C39.9472 53.617 39.7315 53.617 39.689 53.3616C39.6492 53.1884 39.777 53.1061 40.2027 52.8479C40.6313 52.5924 41.8602 51.6984 42.1156 50.1686C42.3739 48.636 41.1819 44.8896 35.2188 44.2084C33.0902 43.9501 31.4327 44.1204 30.0249 44.5036C31.0524 46.7599 31.2624 51.3578 28.8783 54.9368C26.4091 58.5952 21.8112 60.8544 17.341 59.617C15.8936 59.2366 13.6798 56.2537 15.5956 52.0816C17.3836 48.1194 25.0155 44.2907 26.0571 43.7798V43.7628C22.5207 40.7174 13.921 36.6134 12.7091 30.3382C12.3657 28.5586 13.1973 24.3013 18.4281 19.4168Z" fill="#C76495"/>
<path d="M19.5515 56.3189C20.7379 57.0058 23.5023 56.1884 25.4833 54.0342C26.1333 53.3246 26.6612 52.5583 27.0585 51.7352C27.1323 51.5763 27.2118 51.4088 27.2799 51.2357L27.4644 50.7248C27.9752 49.1809 28.0292 47.4694 27.5325 45.6388L27.226 45.8119V45.8204C27.226 45.8204 23.6811 47.4978 21.209 50.1033C18.9101 52.5299 18.2743 55.5753 19.5515 56.3189Z" fill="#C76495"/>
</svg>
