<svg width="39" height="39" viewBox="0 0 39 39" fill="none" xmlns="http://www.w3.org/2000/svg">
<path d="M19.7107 0.362305C14.6706 0.362305 9.83694 2.36447 6.27307 5.92834C2.70919 9.49221 0.707031 14.3259 0.707031 19.3659C0.707031 24.406 2.70919 29.2397 6.27307 32.8035C9.83694 36.3674 14.6706 38.3696 19.7107 38.3696C24.7507 38.3696 29.5844 36.3674 33.1483 32.8035C36.7121 29.2397 38.7143 24.406 38.7143 19.3659C38.7143 14.3259 36.7121 9.49221 33.1483 5.92834C29.5844 2.36447 24.7507 0.362305 19.7107 0.362305ZM3.05081 20.8018H8.35072C8.43518 22.7233 8.70334 24.6321 9.15309 26.5029H4.59222C3.74171 24.7099 3.21965 22.779 3.05081 20.8018ZM21.1465 9.39959V2.87501C23.1813 3.6483 24.8534 5.15465 25.8341 7.09804C26.2669 7.83073 26.6491 8.59299 26.9743 9.37848L21.1465 9.39959ZM27.9456 12.2501C28.4354 14.1146 28.7268 16.0255 28.8113 17.9512H21.1465V12.2501H27.9456ZM18.2748 2.87501V9.39959H12.4471C12.7728 8.61346 13.1538 7.85141 13.5873 7.11915C14.5638 5.1678 16.2364 3.65344 18.2748 2.87501ZM18.2748 12.2501V17.9512H10.6312C10.7156 16.0255 11.007 14.1146 11.4969 12.2501H18.2748ZM8.35072 17.9301H3.05081C3.21965 15.9529 3.74171 14.0219 4.59222 12.229H9.15309C8.70248 14.0991 8.43377 16.0083 8.35072 17.9301ZM10.6312 20.8018H18.2748V26.5029H11.4969C11.0071 24.6385 10.7169 22.7274 10.6312 20.8018ZM18.296 29.2478V35.7724C16.2611 34.9991 14.5891 33.4928 13.6084 31.5494C13.1749 30.8171 12.7939 30.0551 12.4682 29.2689L18.296 29.2478ZM21.1465 35.7724V29.3534H26.9743C26.6486 30.1395 26.2675 30.9016 25.8341 31.6338C24.8534 33.5772 23.1813 35.0836 21.1465 35.8569V35.7724ZM21.1465 26.3973V20.6962H28.7902C28.7045 22.6219 28.4143 24.533 27.9245 26.3973H21.1465ZM31.0917 20.6962H36.3916C36.2228 22.6734 35.7007 24.6044 34.8502 26.3973H30.2682C30.7117 24.5603 30.9798 22.6874 31.0706 20.8018L31.0917 20.6962ZM31.0917 17.8456C30.995 15.9586 30.7193 14.085 30.2682 12.2501H34.8291C35.6801 14.0449 36.2016 15.9748 36.3705 17.9512L31.0917 17.8456ZM33.2033 9.39959H29.4236C28.7398 7.47874 27.7485 5.68169 26.4886 4.07857C29.1162 5.25802 31.3985 7.0897 33.1188 9.39959H33.2033ZM12.9327 4.07857C11.6728 5.68169 10.6816 7.47874 9.9977 9.39959H6.30255C8.02284 7.0897 10.3052 5.25802 12.9327 4.07857ZM6.28143 29.4168H9.9977C10.6816 31.3376 11.6728 33.1347 12.9327 34.7378C10.2979 33.5406 8.01487 31.6865 6.30255 29.3534L6.28143 29.4168ZM26.4675 34.7378C27.7274 33.1347 28.7187 31.3376 29.4025 29.4168H33.1188C31.388 31.6957 29.1066 33.4976 26.4886 34.6533L26.4675 34.7378Z" fill="black"/>
</svg>
