<svg width="56" height="56" viewBox="0 0 56 56" fill="none" xmlns="http://www.w3.org/2000/svg">
<circle cx="27.5479" cy="27.5479" r="27.5479" fill="url(#paint0_linear_140_7348)"/>
<path d="M23.209 20.3606L17.688 22.4101L16.4667 19.8222L19.4815 16.3921L23.209 20.3606Z" fill="white"/>
<path fill-rule="evenodd" clip-rule="evenodd" d="M12.1279 29.5904C15.4093 30.2142 18.5751 28.0598 19.1989 24.7785C19.8227 21.4971 17.6683 18.3313 14.387 17.7075C11.1056 17.0837 7.93985 19.2381 7.31603 22.5194C6.69222 25.8008 8.84659 28.9665 12.1279 29.5904ZM12.4394 27.9515C14.8156 28.4033 17.108 26.8432 17.5598 24.4671C18.0115 22.0909 16.4514 19.7984 14.0753 19.3467C11.6991 18.895 9.40665 20.455 8.95493 22.8312C8.5032 25.2074 10.0633 27.4998 12.4394 27.9515Z" fill="white"/>
<path fill-rule="evenodd" clip-rule="evenodd" d="M24.3086 21.9579C28.3097 22.7186 32.1699 20.0916 32.9305 16.0905C33.6911 12.0894 31.0642 8.22924 27.0631 7.46859C23.062 6.70795 19.2018 9.33487 18.4412 13.336C17.6805 17.3371 20.3075 21.1973 24.3086 21.9579ZM24.6693 20.0513C27.6175 20.6118 30.4619 18.6762 31.0223 15.728C31.5828 12.7798 29.6472 9.93546 26.699 9.37498C23.7508 8.8145 20.9065 10.7501 20.346 13.6983C19.7855 16.6465 21.7212 19.4908 24.6693 20.0513Z" fill="white"/>
<circle cx="13.2578" cy="23.6497" r="2.83029" transform="rotate(10.764 13.2578 23.6497)" fill="white"/>
<circle cx="25.682" cy="14.713" r="3.49605" transform="rotate(10.764 25.682 14.713)" fill="white"/>
<path fill-rule="evenodd" clip-rule="evenodd" d="M22.18 30.0868C23.864 30.2335 25.348 28.9873 25.4948 27.3034C25.6415 25.6194 24.3953 24.1353 22.7113 23.9885C21.0273 23.8418 19.5432 25.088 19.3965 26.772C19.2498 28.456 20.496 29.9401 22.18 30.0868ZM22.3353 28.2907C23.0273 28.351 23.6371 27.8389 23.6974 27.147C23.7576 26.455 23.2456 25.8452 22.5537 25.785C21.8617 25.7247 21.2519 26.2367 21.1916 26.9287C21.1313 27.6206 21.6434 28.2304 22.3353 28.2907Z" fill="white"/>
<path fill-rule="evenodd" clip-rule="evenodd" d="M17.0224 53.0136C12.8666 51.2942 9.22313 48.5873 6.38458 45.1853C6.38507 45.1845 6.38556 45.1838 6.38605 45.1831C9.22432 48.5853 12.8676 51.2925 17.0232 53.0121C17.0229 53.0126 17.0227 53.0131 17.0224 53.0136ZM31.0096 54.8796C29.8752 55.0219 28.7194 55.0952 27.5465 55.0952C24.5976 55.0952 21.7569 54.6319 19.0932 53.774C19.0928 53.7734 19.0924 53.7728 19.092 53.7721C21.7568 54.6309 24.5989 55.0947 27.5494 55.0947C28.7214 55.0947 29.8763 55.0215 31.0098 54.8795C31.0097 54.8795 31.0097 54.8796 31.0096 54.8796ZM34.2698 54.2689C33.8344 53.8489 33.4436 53.378 33.1073 52.8594C32.8753 53.5166 32.5738 54.1356 32.2071 54.7026C31.8108 54.7701 31.4116 54.8291 31.0098 54.8795C32.3408 53.5485 33.1597 51.7361 33.1597 49.7387C33.1597 49.6333 33.1574 49.5284 33.1529 49.4241C33.2503 50.0846 33.444 50.738 33.7409 51.3675C34.2132 52.3687 34.8984 53.207 35.7263 53.8605C35.2463 54.0095 34.7607 54.1458 34.2698 54.2689ZM54.9054 30.7912C53.156 29.9367 51.0847 29.8446 49.2295 30.7197C45.9137 32.2838 44.5433 36.3451 46.1687 39.791C46.9932 41.5389 48.4302 42.7928 50.0789 43.3998C49.6279 44.0397 49.1503 44.6595 48.6478 45.2576C48.561 44.996 48.4577 44.7372 48.3374 44.4823C46.584 40.765 41.895 39.2928 37.8643 41.1941C34.7659 42.6556 32.9584 45.685 33.0844 48.6966C32.5605 45.1048 29.3678 42.3416 25.5075 42.3416C21.2814 42.3416 17.8554 45.6534 17.8554 49.7387C17.8554 51.2267 18.3099 52.612 19.092 53.7721C18.3896 53.5458 17.6996 53.2921 17.0232 53.0121C17.5523 51.9713 17.8545 50.767 17.8545 49.4836C17.8545 45.5392 14.9995 42.3416 11.4777 42.3416C9.39756 42.3416 7.55006 43.4571 6.38605 45.1831C6.15975 44.9118 5.93857 44.6361 5.72266 44.3562C7.0787 42.5046 9.15354 41.3205 11.479 41.3205C14.2905 41.3205 16.7356 43.0512 17.9871 45.5998C19.5198 43.0449 22.4279 41.3205 25.7632 41.3205C28.9124 41.3205 31.2645 42.7541 32.5531 45.0013C33.4446 42.9626 35.1083 41.1853 37.3607 40.1229C39.9198 38.9158 42.7078 38.8819 45.0401 39.8063C43.3742 35.9617 44.9367 31.5181 48.6107 29.7851C50.6982 28.8005 53.0273 28.8983 54.9994 29.8506C54.9733 30.1657 54.942 30.4793 54.9054 30.7912ZM33.1529 49.4241C33.1423 49.1783 33.1192 48.9356 33.0844 48.6966C33.0945 48.9395 33.1173 49.1823 33.1529 49.4241Z" fill="white"/>
<path fill-rule="evenodd" clip-rule="evenodd" d="M15.6219 52.3887C12.5294 50.9017 9.75738 48.8542 7.4375 46.378C8.30599 44.8676 9.78982 43.8724 11.4744 43.8724C14.151 43.8724 16.3208 46.3848 16.3208 49.484C16.3208 50.5472 16.0654 51.5414 15.6219 52.3887Z" fill="white"/>
<path fill-rule="evenodd" clip-rule="evenodd" d="M21.9785 54.5315C20.4116 53.469 19.3887 51.7185 19.3887 49.7391C19.3887 46.499 22.1295 43.8724 25.5104 43.8724C28.8914 43.8724 31.6322 46.499 31.6322 49.7391C31.6322 52.1221 30.1496 54.1733 28.0201 55.0917C27.8644 55.0943 27.7083 55.0956 27.552 55.0956C25.6426 55.0956 23.7785 54.9013 21.9785 54.5315Z" fill="white"/>
<path fill-rule="evenodd" clip-rule="evenodd" d="M47.3768 46.6709C44.6362 49.5121 41.2906 51.7659 37.5474 53.2247C36.528 52.6585 35.6851 51.8003 35.1642 50.6959C33.7531 47.7043 35.2387 44.0388 38.4825 42.5088C41.7263 40.9787 45.4998 42.1634 46.9109 45.155C47.1426 45.6463 47.2963 46.1557 47.3768 46.6709Z" fill="white"/>
<path fill-rule="evenodd" clip-rule="evenodd" d="M53.8347 32.3123C53.082 35.7773 51.7458 38.9832 49.9505 41.7896C48.9044 41.3104 47.9989 40.3865 47.4699 39.1193C46.3813 36.512 47.299 33.4389 49.5198 32.2554C50.9909 31.4715 52.5997 31.4676 53.8347 32.3123Z" fill="white"/>
<circle cx="27.5479" cy="27.5479" r="26.9712" stroke="black" stroke-width="1.15327"/>
<defs>
<linearGradient id="paint0_linear_140_7348" x1="27.5479" y1="0" x2="27.5479" y2="55.0957" gradientUnits="userSpaceOnUse">
<stop stop-color="#454545"/>
<stop offset="1" stop-color="#CDCDCD"/>
</linearGradient>
</defs>
</svg>
