<svg width="69" height="69" viewBox="0 0 69 69" fill="none" xmlns="http://www.w3.org/2000/svg">
<rect width="68.1166" height="68.1166" fill="#222222"/>
<path d="M33.8349 15C25.6121 15 20.4747 19.1097 18.4175 27.3325C21.5 23.2223 25.0985 21.6811 29.2087 22.7087C31.5556 23.2936 33.2327 24.9953 35.09 26.8811C38.1128 29.9487 41.6116 33.5 49.2524 33.5C57.4747 33.5 62.6126 29.3898 64.6699 21.1651C61.5864 25.2773 57.9891 26.8194 53.8781 25.7913C51.5318 25.2059 49.8566 23.5047 47.9968 21.6189C44.976 18.5513 41.4781 15 33.8349 15ZM18.4175 33.5C10.1951 33.5 5.05727 37.6102 3 45.8349C6.08317 41.7226 9.68026 40.1806 13.7913 41.2087C16.1381 41.7941 17.8152 43.4953 19.6725 45.3811C22.6953 48.4487 26.1941 52 33.8349 52C42.0573 52 47.1951 47.8903 49.2524 39.6675C46.1689 43.7778 42.5717 45.3191 38.4607 44.2913C36.1143 43.7064 34.4391 42.0047 32.5794 40.1189C29.5585 37.0513 26.0607 33.5 18.4175 33.5Z" fill="#38BDF8"/>
</svg>
