<svg width="69" height="69" viewBox="0 0 69 69" fill="none" xmlns="http://www.w3.org/2000/svg">
<rect x="0.117188" y="0.116577" width="68.1166" height="68.1166" fill="#131313"/>
<path d="M2.95508 3.02762H65.3953V65.3223H2.95508V3.02762Z" fill="#2E001E"/>
<path d="M0.117188 0.116699V68.2333H68.2338V0.116699H0.117188ZM2.95549 3.02778H65.3957V65.3222H2.95549V3.02778Z" fill="#FF2BC2"/>
<path d="M49.5885 28.7314C49.0667 28.5134 48.5051 28.4141 47.9423 28.4403C44.3661 28.4403 41.9821 31.2639 41.9821 35.9506C41.9821 41.3068 44.423 43.4609 47.6018 43.4609C48.2683 43.4802 48.9325 43.3716 49.5601 43.1408V28.7314H49.5885ZM36.8733 36.1836C36.8733 29.401 41.1307 24.1031 48.1125 24.1031C48.6052 24.0928 49.098 24.1122 49.5885 24.1612V16.5925C49.5886 16.5154 49.6186 16.4415 49.6718 16.3869C49.725 16.3324 49.7971 16.3016 49.8723 16.3014H54.4418C54.6689 16.3014 54.7256 16.3889 54.7256 16.5344V43.1405C54.7089 44.0937 54.7563 45.0468 54.8675 45.9933C54.8675 46.1976 54.8675 46.2262 54.6972 46.3134C52.4278 47.4233 49.9456 48.0001 47.4314 48.0018C41.2726 48.002 36.8733 44.1012 36.8733 36.1833V36.1836ZM27.1951 31.4678L35.1426 47.2743C35.2845 47.5073 35.1993 47.74 34.9723 47.74H30.0334C29.9068 47.7565 29.7785 47.7278 29.6701 47.6589C29.5616 47.59 29.4795 47.485 29.4374 47.3615C27.6209 43.519 25.7667 39.531 23.8746 35.3975H23.8175C22.1146 39.2983 20.2413 43.5488 18.4249 47.3908C18.3795 47.4895 18.3069 47.5724 18.2161 47.6293C18.1254 47.6861 18.0203 47.7145 17.914 47.7109H13.2028C12.919 47.7109 12.8907 47.478 13.0326 47.3034L20.8092 31.9619L13.288 16.709C13.2525 16.6715 13.2289 16.6238 13.2204 16.5721C13.2119 16.5205 13.219 16.4675 13.2406 16.4201C13.2622 16.3727 13.2974 16.3332 13.3415 16.3068C13.3855 16.2804 13.4364 16.2684 13.4873 16.2724H18.3682C18.6521 16.2724 18.794 16.3305 18.8792 16.5925C20.6673 20.4641 22.4837 24.2774 24.1865 28.1783H24.2432C25.8894 24.3358 27.7058 20.4643 29.4372 16.6509C29.5791 16.4179 29.6643 16.2724 29.9481 16.2724H34.5176C34.7448 16.2724 34.8298 16.447 34.6879 16.709L27.1951 31.4678Z" fill="#FF2BC2"/>
</svg>
