<svg width="18" height="33" viewBox="0 0 18 33" fill="none" xmlns="http://www.w3.org/2000/svg">
<path d="M0.687696 31.7354C0.247597 31.2919 0.000362396 30.6905 0.000362396 30.0635C0.000362396 29.4364 0.247597 28.835 0.687696 28.3916L12.3081 16.686L0.687696 4.98036C0.260071 4.53436 0.0234489 3.93701 0.0287971 3.31698C0.0341454 2.69694 0.281034 2.10383 0.716291 1.66538C1.15155 1.22693 1.74035 0.978235 2.35587 0.972847C2.97139 0.967459 3.56439 1.20581 4.00714 1.63658L17.2873 15.0141C17.7274 15.4575 17.9746 16.0589 17.9746 16.686C17.9746 17.313 17.7274 17.9144 17.2873 18.3579L4.00714 31.7354C3.56691 32.1787 2.96991 32.4277 2.34742 32.4277C1.72493 32.4277 1.12793 32.1787 0.687696 31.7354Z" fill="#A259FF"/>
</svg>
