<svg width="115" height="173" viewBox="0 0 115 173" fill="none" xmlns="http://www.w3.org/2000/svg">
<g clip-path="url(#clip0_817_2203)">
<path d="M28.75 172.5C44.62 172.5 57.5 159.62 57.5 143.75V115H28.75C12.88 115 0 127.88 0 143.75C0 159.62 12.88 172.5 28.75 172.5Z" fill="#0ACF83"/>
<path d="M0 86.25C0 70.38 12.88 57.5 28.75 57.5H57.5V115H28.75C12.88 115 0 102.12 0 86.25Z" fill="#A259FF"/>
<path d="M0 28.75C0 12.88 12.88 0 28.75 0H57.5V57.5H28.75C12.88 57.5 0 44.62 0 28.75Z" fill="#F24E1E"/>
<path d="M57.5 0H86.25C102.12 0 115 12.88 115 28.75C115 44.62 102.12 57.5 86.25 57.5H57.5V0Z" fill="#FF7262"/>
<path d="M115 86.25C115 102.12 102.12 115 86.25 115C70.38 115 57.5 102.12 57.5 86.25C57.5 70.38 70.38 57.5 86.25 57.5C102.12 57.5 115 70.38 115 86.25Z" fill="#1ABCFE"/>
</g>
<defs>
<clipPath id="clip0_817_2203">
<rect width="115" height="172.5" fill="white"/>
</clipPath>
</defs>
</svg>
