<svg width="263" height="263" viewBox="0 0 263 263" fill="none" xmlns="http://www.w3.org/2000/svg">
<path d="M89.5298 162.262L135.268 83.0415L181.005 162.262H89.5298Z" stroke="black" stroke-width="3.58106"/>
<path d="M213.191 102.445C213.715 104.714 212.629 107.678 209.17 111.285C205.773 114.827 200.427 118.616 193.449 122.401C179.516 129.96 159.448 137.305 136.555 142.598C113.662 147.891 92.4059 150.099 76.5693 149.423C68.638 149.085 62.1713 148.027 57.5642 146.335C52.8735 144.612 50.5962 142.426 50.0715 140.157C49.5469 137.888 50.6337 134.924 54.0923 131.317C57.4893 127.775 62.8353 123.986 69.8132 120.2C83.7461 112.642 103.814 105.296 126.707 100.004C149.6 94.7112 170.856 92.5028 186.693 93.1786C194.624 93.517 201.091 94.5752 205.698 96.2671C210.389 97.9896 212.666 100.176 213.191 102.445Z" stroke="black" stroke-width="3.58106"/>
</svg>
