<svg width="208" height="208" viewBox="0 0 208 208" fill="none" xmlns="http://www.w3.org/2000/svg">
<circle cx="104" cy="104" r="104" fill="url(#paint0_linear_757_29)"/>
<path d="M87.6191 76.8652L66.7759 84.6026L62.1654 74.8328L73.547 61.8833L87.6191 76.8652Z" fill="white"/>
<path fill-rule="evenodd" clip-rule="evenodd" d="M45.7846 111.71C58.1725 114.065 70.1241 105.931 72.4792 93.5434C74.8342 81.1554 66.701 69.2039 54.313 66.8488C41.9251 64.4937 29.9735 72.627 27.6184 85.015C25.2634 97.4029 33.3966 109.354 45.7846 111.71ZM46.9632 105.523C55.9338 107.229 64.5884 101.339 66.2938 92.3684C67.9991 83.3978 62.1095 74.7432 53.139 73.0378C44.1684 71.3324 35.5138 77.222 33.8084 86.1926C32.103 95.1632 37.9926 103.818 46.9632 105.523Z" fill="white"/>
<path fill-rule="evenodd" clip-rule="evenodd" d="M91.7708 82.8966C106.876 85.7682 121.449 75.8509 124.321 60.7457C127.192 45.6405 117.275 31.0674 102.17 28.1958C87.0647 25.3242 72.4916 35.2414 69.6199 50.3466C66.7483 65.4518 76.6656 80.0249 91.7708 82.8966ZM93.1347 75.6982C104.265 77.8141 115.003 70.5067 117.119 59.3765C119.235 48.2464 111.927 37.5083 100.797 35.3924C89.667 33.2764 78.9289 40.5839 76.813 51.714C74.6971 62.8442 82.0045 73.5823 93.1347 75.6982Z" fill="white"/>
<circle cx="50.0503" cy="89.2827" r="10.685" transform="rotate(10.764 50.0503 89.2827)" fill="white"/>
<circle cx="96.9544" cy="55.5445" r="13.1985" transform="rotate(10.764 96.9544 55.5445)" fill="white"/>
<path fill-rule="evenodd" clip-rule="evenodd" d="M83.7342 113.586C90.0917 114.14 95.6945 109.436 96.2484 103.078C96.8024 96.7206 92.0977 91.1178 85.7402 90.5638C79.3827 90.0099 73.7799 94.7146 73.2259 101.072C72.672 107.43 77.3767 113.032 83.7342 113.586ZM84.3217 106.806C86.9339 107.033 89.2361 105.1 89.4637 102.488C89.6913 99.8756 87.7581 97.5735 85.1459 97.3458C82.5337 97.1182 80.2315 99.0514 80.0039 101.664C79.7763 104.276 81.7094 106.578 84.3217 106.806Z" fill="white"/>
<path fill-rule="evenodd" clip-rule="evenodd" d="M64.2664 200.14C48.5769 193.65 34.8215 183.43 24.1049 170.587C24.1066 170.585 24.1083 170.582 24.1101 170.58C34.8255 183.424 48.5799 193.644 64.2686 200.136C64.2678 200.137 64.2671 200.139 64.2664 200.14ZM129.376 204.878C127.732 203.293 126.257 201.515 124.987 199.557C124.112 202.038 122.974 204.375 121.589 206.516C120.094 206.77 118.587 206.993 117.07 207.184C122.095 202.159 125.187 195.316 125.187 187.776C125.187 187.377 125.179 186.979 125.161 186.584C125.529 189.079 126.26 191.547 127.382 193.925C129.164 197.704 131.751 200.869 134.877 203.336C133.064 203.899 131.23 204.414 129.376 204.878ZM207.281 116.245C200.677 113.019 192.858 112.672 185.854 115.975C173.336 121.88 168.163 137.213 174.299 150.222C177.412 156.82 182.836 161.553 189.06 163.845C187.357 166.26 185.555 168.6 183.658 170.857C183.331 169.87 182.941 168.893 182.487 167.932C175.868 153.898 158.165 148.34 142.948 155.518C131.25 161.036 124.426 172.474 124.903 183.845C122.927 170.283 110.873 159.85 96.2983 159.85C80.3434 159.85 67.4094 172.353 67.4094 187.776C67.4094 193.394 69.1257 198.625 72.0791 203.005C69.4275 202.15 66.8224 201.192 64.2686 200.136C66.2667 196.206 67.4081 191.658 67.4081 186.813C67.4081 171.921 56.6297 159.85 43.334 159.85C35.48 159.85 28.5044 164.062 24.1101 170.58C23.255 169.555 22.4193 168.513 21.6035 167.455C26.7229 160.466 34.5554 155.996 43.334 155.996C53.9481 155.996 63.1792 162.531 67.9038 172.152C73.69 162.507 84.6689 155.996 97.2606 155.996C109.15 155.996 118.031 161.409 122.895 169.894C126.26 162.196 132.542 155.486 141.046 151.475C150.707 146.917 161.233 146.79 170.038 150.28C163.75 135.766 169.648 118.99 183.519 112.448C191.399 108.731 200.191 109.1 207.636 112.694C207.538 113.884 207.419 115.067 207.281 116.245ZM110.91 207.771C108.624 207.921 106.318 207.998 103.995 207.998C92.8622 207.998 82.1383 206.249 72.0828 203.01C72.0816 203.008 72.0804 203.007 72.0791 203.005C82.1389 206.246 92.8678 207.997 104.006 207.997C106.326 207.997 108.628 207.921 110.91 207.771ZM125.161 186.584C125.121 185.659 125.034 184.745 124.903 183.845C124.942 184.76 125.027 185.674 125.161 186.584Z" fill="white"/>
<path fill-rule="evenodd" clip-rule="evenodd" d="M28.082 175.086C31.3608 169.385 36.9625 165.628 43.322 165.628C53.4268 165.628 61.6183 175.113 61.6183 186.813C61.6183 190.827 60.6544 194.58 58.9799 197.779C47.3051 192.165 36.8401 184.435 28.082 175.086Z" fill="white"/>
<path fill-rule="evenodd" clip-rule="evenodd" d="M82.9728 205.869C77.0572 201.858 73.1953 195.249 73.1953 187.776C73.1953 175.544 83.5425 165.628 96.3064 165.628C109.07 165.628 119.418 175.544 119.418 187.776C119.418 196.772 113.821 204.516 105.782 207.983C105.193 207.993 104.603 207.998 104.013 207.998C96.8046 207.998 89.7678 207.265 82.9728 205.869Z" fill="white"/>
<path fill-rule="evenodd" clip-rule="evenodd" d="M178.861 176.193C168.514 186.92 155.884 195.429 141.752 200.936C137.904 198.799 134.722 195.559 132.756 191.39C127.428 180.096 133.037 166.258 145.283 160.481C157.529 154.705 171.775 159.178 177.102 170.472C177.977 172.326 178.557 174.249 178.861 176.193Z" fill="white"/>
<path fill-rule="evenodd" clip-rule="evenodd" d="M203.24 121.991C200.398 135.072 195.353 147.175 188.575 157.769C184.624 155.96 181.204 152.472 179.206 147.686C175.096 137.843 178.561 126.241 186.945 121.773C192.501 118.813 198.577 118.799 203.24 121.991Z" fill="white"/>
<circle cx="104" cy="104" r="102" stroke="black" stroke-width="4"/>
<defs>
<linearGradient id="paint0_linear_757_29" x1="104" y1="0" x2="104" y2="208" gradientUnits="userSpaceOnUse">
<stop stop-color="#454545"/>
<stop offset="1" stop-color="#CDCDCD"/>
</linearGradient>
</defs>
</svg>
