<svg width="208" height="208" viewBox="0 0 208 208" fill="none" xmlns="http://www.w3.org/2000/svg">
<circle cx="104" cy="104" r="104" fill="url(#paint0_linear_757_258)"/>
<path d="M87.6152 76.8672L66.772 84.6046L62.1614 74.8347L73.5431 61.8853L87.6152 76.8672Z" fill="white"/>
<path fill-rule="evenodd" clip-rule="evenodd" d="M45.7944 111.711C58.1823 114.067 70.1339 105.933 72.4889 93.5453C74.844 81.1574 66.7107 69.2058 54.3228 66.8508C41.9348 64.4957 29.9833 72.629 27.6282 85.0169C25.2731 97.4049 33.4064 109.356 45.7944 111.711ZM46.9711 105.525C55.9416 107.231 64.5962 101.341 66.3016 92.3706C68.007 83.4 62.1174 74.7454 53.1468 73.04C44.1762 71.3346 35.5216 77.2242 33.8163 86.1948C32.1109 95.1654 38.0005 103.82 46.9711 105.525Z" fill="white"/>
<path fill-rule="evenodd" clip-rule="evenodd" d="M91.7552 82.8966C106.86 85.7682 121.433 75.8509 124.305 60.7457C127.177 45.6405 117.259 31.0674 102.154 28.1958C87.0491 25.3242 72.476 35.2414 69.6043 50.3466C66.7327 65.4518 76.65 80.0249 91.7552 82.8966ZM93.1205 75.6993C104.251 77.8153 114.989 70.5078 117.105 59.3777C119.221 48.2475 111.913 37.5094 100.783 35.3935C89.6528 33.2776 78.9147 40.585 76.7988 51.7152C74.6829 62.8453 81.9903 73.5834 93.1205 75.6993Z" fill="white"/>
<ellipse cx="50.0561" cy="89.2846" rx="10.685" ry="10.685" transform="rotate(10.764 50.0561 89.2846)" fill="white"/>
<circle cx="96.9544" cy="55.5455" r="13.1984" transform="rotate(10.764 96.9544 55.5455)" fill="white"/>
<path fill-rule="evenodd" clip-rule="evenodd" d="M83.7361 113.586C90.0936 114.14 95.6965 109.436 96.2504 103.078C96.8043 96.7206 92.0996 91.1178 85.7421 90.5638C79.3847 90.0099 73.7818 94.7146 73.2279 101.072C72.674 107.43 77.3787 113.032 83.7361 113.586ZM84.3279 106.804C86.9402 107.032 89.2423 105.098 89.4699 102.486C89.6976 99.874 87.7644 97.5718 85.1522 97.3442C82.5399 97.1166 80.2378 99.0497 80.0102 101.662C79.7826 104.274 81.7157 106.576 84.3279 106.804Z" fill="white"/>
<path fill-rule="evenodd" clip-rule="evenodd" d="M21.5996 167.459C26.719 160.47 34.5517 156 43.3304 156C53.9444 156 63.1754 162.534 67.9001 172.155C73.6863 162.51 84.6651 156 97.2566 156C109.145 156 118.025 161.411 122.889 169.894C126.255 162.198 132.536 155.489 141.039 151.478C150.701 146.92 161.228 146.793 170.034 150.284C163.745 135.77 169.644 118.994 183.514 112.451C191.397 108.733 200.193 109.104 207.639 112.702C207.541 113.891 207.422 115.074 207.284 116.252C200.678 113.023 192.856 112.674 185.85 115.978C173.332 121.883 168.158 137.216 174.295 150.225C177.408 156.825 182.835 161.559 189.061 163.851C187.358 166.267 185.555 168.607 183.657 170.865C183.329 169.877 182.939 168.899 182.484 167.936C175.865 153.902 158.163 148.344 142.946 155.522C131.241 161.043 124.416 172.491 124.901 183.868C122.934 170.296 110.875 159.853 96.2934 159.853C80.3385 159.853 67.4045 172.356 67.4045 187.779C67.4045 193.397 69.1204 198.627 72.0733 203.007C69.423 202.153 66.8191 201.195 64.2665 200.139C66.2647 196.209 67.4062 191.661 67.4062 186.815C67.4062 171.924 56.6278 159.852 43.3321 159.852C35.4774 159.852 28.5012 164.066 24.107 170.584C23.2516 169.559 22.4157 168.517 21.5996 167.459ZM117.066 207.186C122.091 202.162 125.182 195.319 125.182 187.779C125.182 187.374 125.173 186.97 125.156 186.569C125.522 189.071 126.254 191.545 127.379 193.929C129.162 197.708 131.748 200.873 134.873 203.34C133.06 203.903 131.225 204.418 129.37 204.883C127.727 203.297 126.252 201.52 124.983 199.563C124.107 202.043 122.969 204.379 121.585 206.518C120.09 206.773 118.583 206.996 117.066 207.186ZM147.948 198.284C161.777 191.827 173.95 182.417 183.657 170.865C183.657 170.866 183.657 170.866 183.657 170.866C173.95 182.418 161.777 191.828 147.948 198.284ZM124.901 183.868C124.94 184.77 125.024 185.671 125.156 186.569C125.115 185.657 125.03 184.756 124.901 183.868Z" fill="white"/>
<path fill-rule="evenodd" clip-rule="evenodd" d="M58.9882 197.782C47.3133 192.168 36.8481 184.438 28.0898 175.09C31.3685 169.388 36.9707 165.63 43.3309 165.63C53.4356 165.63 61.6272 175.115 61.6272 186.815C61.6272 190.829 60.663 194.583 58.9882 197.782Z" fill="white"/>
<path fill-rule="evenodd" clip-rule="evenodd" d="M82.9643 205.871C77.048 201.86 73.1855 195.252 73.1855 187.778C73.1855 175.546 83.5327 165.63 96.2967 165.63C109.061 165.63 119.408 175.546 119.408 187.778C119.408 196.774 113.811 204.518 105.772 207.985C105.182 207.995 104.592 208 104 208C96.7934 208 89.758 207.267 82.9643 205.871Z" fill="white"/>
<path fill-rule="evenodd" clip-rule="evenodd" d="M178.865 176.191C168.518 186.919 155.888 195.428 141.756 200.936C137.908 198.799 134.726 195.559 132.759 191.39C127.432 180.096 133.041 166.258 145.287 160.481C157.533 154.705 171.779 159.178 177.106 170.472C177.981 172.325 178.56 174.247 178.865 176.191Z" fill="white"/>
<path fill-rule="evenodd" clip-rule="evenodd" d="M203.235 121.987C200.393 135.068 195.349 147.171 188.571 157.766C184.621 155.957 181.202 152.469 179.204 147.684C175.094 137.841 178.559 126.239 186.943 121.771C192.497 118.811 198.572 118.797 203.235 121.987Z" fill="white"/>
<circle cx="104" cy="104" r="102" stroke="black" stroke-width="4"/>
<defs>
<linearGradient id="paint0_linear_757_258" x1="104" y1="0" x2="104" y2="208" gradientUnits="userSpaceOnUse">
<stop stop-color="#3F0035"/>
<stop offset="1" stop-color="#B76CF2"/>
</linearGradient>
</defs>
</svg>
